<svg width="201" height="63" viewBox="0 0 201 63" fill="none" xmlns="http://www.w3.org/2000/svg">
<path d="M29.3693 45.4294C32.2196 45.4294 34.1197 43.7607 34.6898 41.0846H40.2003C39.5035 46.6257 35.2598 50.4038 29.401 50.4038C22.9088 50.4038 18 45.7127 18 39.2585C18 32.8044 22.9088 28.1133 29.401 28.1133C35.2598 28.1133 39.5035 31.8913 40.2003 37.4325H34.6898C34.1197 34.7564 32.2196 33.0877 29.3693 33.0877C25.854 33.0877 23.4155 35.7009 23.4155 39.2585C23.4155 42.8162 25.854 45.4294 29.3693 45.4294Z" fill="#EFF6FE"/>
<path d="M54.2733 46.2794H45.1526L43.7274 49.963H38.0269L47.1794 28.4281H52.3098L61.4306 49.963H55.7301L54.2733 46.2794ZM52.4999 41.7458L49.7129 34.6304L46.926 41.7458H52.4999Z" fill="#EFF6FE"/>
<path d="M75.0071 49.963L70.8901 43.7607H66.8364V49.963H61.4843V28.5541H70.8901C76.2423 28.5541 79.8209 31.4506 79.8209 36.0787C79.8209 38.8807 78.4591 41.1476 76.1789 42.4699L81.246 49.963H75.0071ZM66.8364 38.9752H70.7951C72.8536 38.9752 74.4688 37.8418 74.4688 36.0787C74.4688 34.3471 72.8536 33.2451 70.7951 33.2451H66.8364V38.9752Z" fill="#EFF6FE"/>
<path d="M94.563 49.963L90.446 43.7607H86.3923V49.963H81.0402V28.5541H90.446C95.7981 28.5541 99.3768 31.4506 99.3768 36.0787C99.3768 38.8807 98.015 41.1476 95.7348 42.4699L100.802 49.963H94.563ZM86.3923 38.9752H90.351C92.4095 38.9752 94.0246 37.8418 94.0246 36.0787C94.0246 34.3471 92.4095 33.2451 90.351 33.2451H86.3923V38.9752Z" fill="#EFF6FE"/>
<path d="M110.872 28.1133C117.364 28.1133 122.273 33.0247 122.273 39.2585C122.273 45.4923 117.364 50.4038 110.872 50.4038C104.38 50.4038 99.4708 45.4923 99.4708 39.2585C99.4708 33.0247 104.38 28.1133 110.872 28.1133ZM110.872 45.4608C114.355 45.4608 116.857 42.6273 116.857 39.2585C116.857 35.8898 114.355 33.0562 110.872 33.0562C107.388 33.0562 104.886 35.8898 104.886 39.2585C104.886 42.6273 107.388 45.4608 110.872 45.4608Z" fill="#EFF6FE"/>
<path d="M139.653 33.3081H132.781V49.963H127.461V33.3081H120.588V28.5541H139.653V33.3081Z" fill="#EFF6FE"/>
<rect x="173.455" y="16.8003" width="9.6007" height="4.80035" fill="#EFF6FE"/>
<rect x="178.256" y="16.8003" width="4.80035" height="4.80035" fill="#EFF6FE"/>
<rect x="144.653" y="45.6025" width="4.80035" height="4.80035" fill="#EFF6FE"/>
<rect x="149.454" y="36.0017" width="9.6007" height="9.6007" fill="#EFF6FE"/>
<rect x="154.254" y="31.2014" width="9.6007" height="9.6007" fill="#EFF6FE"/>
<rect x="159.055" y="26.4011" width="9.6007" height="9.6007" fill="#EFF6FE"/>
<rect x="154.254" y="40.802" width="4.80035" height="4.80035" fill="#EFF6FE"/>
<rect x="159.055" y="36.0017" width="4.80035" height="4.80035" fill="#EFF6FE"/>
<rect x="163.854" y="31.2014" width="4.80035" height="4.80035" fill="#EFF6FE"/>
<rect x="159.055" y="16.8003" width="9.6007" height="4.80035" fill="#EFF6FE"/>
<rect x="163.854" y="16.8003" width="4.80035" height="4.80035" fill="#EFF6FE"/>
<rect x="163.854" y="12" width="4.80035" height="4.80035" fill="#EFF6FE"/>
<rect x="173.455" y="12" width="4.80035" height="9.6007" fill="#EFF6FE"/>
<rect x="168.655" y="21.6006" width="4.80035" height="4.80035" fill="#EFF6FE"/>
<rect x="173.455" y="26.4011" width="4.80035" height="4.80035" fill="#EFF6FE"/>
<rect x="178.256" y="26.4011" width="4.80035" height="9.6007" fill="#EFF6FE"/>
<rect x="178.256" y="31.2014" width="4.80035" height="4.80035" fill="#EFF6FE"/>
</svg>
