<svg width="166" height="39" viewBox="0 0 166 39" fill="none" xmlns="http://www.w3.org/2000/svg">
<path d="M11.3693 33.4294C14.2196 33.4294 16.1197 31.7607 16.6898 29.0846H22.2003C21.5035 34.6257 17.2598 38.4038 11.401 38.4038C4.90876 38.4038 0 33.7127 0 27.2585C0 20.8044 4.90876 16.1133 11.401 16.1133C17.2598 16.1133 21.5035 19.8913 22.2003 25.4325H16.6898C16.1197 22.7564 14.2196 21.0877 11.3693 21.0877C7.85401 21.0877 5.41547 23.7009 5.41547 27.2585C5.41547 30.8162 7.85401 33.4294 11.3693 33.4294Z" fill="#EFF6FE"/>
<path d="M36.2733 34.2794H27.1526L25.7274 37.963H20.0269L29.1794 16.4281H34.3098L43.4306 37.963H37.7301L36.2733 34.2794ZM34.4999 29.7458L31.7129 22.6304L28.926 29.7458H34.4999Z" fill="#EFF6FE"/>
<path d="M57.0071 37.963L52.8901 31.7607H48.8364V37.963H43.4843V16.5541H52.8901C58.2423 16.5541 61.8209 19.4506 61.8209 24.0787C61.8209 26.8807 60.4591 29.1476 58.1789 30.4699L63.246 37.963H57.0071ZM48.8364 26.9752H52.7951C54.8536 26.9752 56.4688 25.8418 56.4688 24.0787C56.4688 22.3471 54.8536 21.2451 52.7951 21.2451H48.8364V26.9752Z" fill="#EFF6FE"/>
<path d="M76.563 37.963L72.446 31.7607H68.3923V37.963H63.0402V16.5541H72.446C77.7981 16.5541 81.3768 19.4506 81.3768 24.0787C81.3768 26.8807 80.015 29.1476 77.7348 30.4699L82.8019 37.963H76.563ZM68.3923 26.9752H72.351C74.4095 26.9752 76.0246 25.8418 76.0246 24.0787C76.0246 22.3471 74.4095 21.2451 72.351 21.2451H68.3923V26.9752Z" fill="#EFF6FE"/>
<path d="M92.8717 16.1133C99.364 16.1133 104.273 21.0247 104.273 27.2585C104.273 33.4923 99.364 38.4038 92.8717 38.4038C86.3795 38.4038 81.4708 33.4923 81.4708 27.2585C81.4708 21.0247 86.3795 16.1133 92.8717 16.1133ZM92.8717 33.4608C96.3554 33.4608 98.8573 30.6273 98.8573 27.2585C98.8573 23.8898 96.3554 21.0562 92.8717 21.0562C89.3881 21.0562 86.8862 23.8898 86.8862 27.2585C86.8862 30.6273 89.3881 33.4608 92.8717 33.4608Z" fill="#EFF6FE"/>
<path d="M121.653 21.3081H114.781V37.963H109.461V21.3081H102.588V16.5541H121.653V21.3081Z" fill="#EFF6FE"/>
<rect x="155.455" y="4.80029" width="9.6007" height="4.80035" fill="#EFF6FE"/>
<rect x="160.256" y="4.80029" width="4.80035" height="4.80035" fill="#EFF6FE"/>
<rect x="126.653" y="33.6025" width="4.80035" height="4.80035" fill="#EFF6FE"/>
<rect x="131.454" y="24.0017" width="9.6007" height="9.6007" fill="#EFF6FE"/>
<rect x="136.254" y="19.2014" width="9.6007" height="9.6007" fill="#EFF6FE"/>
<rect x="141.055" y="14.4011" width="9.6007" height="9.6007" fill="#EFF6FE"/>
<rect x="136.254" y="28.802" width="4.80035" height="4.80035" fill="#EFF6FE"/>
<rect x="141.055" y="24.0017" width="4.80035" height="4.80035" fill="#EFF6FE"/>
<rect x="145.854" y="19.2014" width="4.80035" height="4.80035" fill="#EFF6FE"/>
<rect x="141.055" y="4.80029" width="9.6007" height="4.80035" fill="#EFF6FE"/>
<rect x="145.854" y="4.80029" width="4.80035" height="4.80035" fill="#EFF6FE"/>
<rect x="145.854" width="4.80035" height="4.80035" fill="#EFF6FE"/>
<rect x="155.455" width="4.80035" height="9.6007" fill="#EFF6FE"/>
<rect x="150.655" y="9.60059" width="4.80035" height="4.80035" fill="#EFF6FE"/>
<rect x="155.455" y="14.4011" width="4.80035" height="4.80035" fill="#EFF6FE"/>
<rect x="160.256" y="14.4011" width="4.80035" height="9.6007" fill="#EFF6FE"/>
<rect x="160.256" y="19.2014" width="4.80035" height="4.80035" fill="#EFF6FE"/>
</svg>
