<svg width="106" height="39" viewBox="0 0 106 39" fill="none" xmlns="http://www.w3.org/2000/svg">
<path fill-rule="evenodd" clip-rule="evenodd" d="M16.6608 0L17.9817 3.87262L11.1791 16.2869L9.18652 13.642L16.6608 0Z" fill="#EFF6FE"/>
<path fill-rule="evenodd" clip-rule="evenodd" d="M16.2946 11.8271L17.6505 14.6354L2.22161 38.1814L0 36.7994L16.2946 11.8271Z" fill="#EFF6FE"/>
<path fill-rule="evenodd" clip-rule="evenodd" d="M7.09431 18.3967L9.27657 20.6095L4.13657 22.4758L1.44531 20.4464L7.09431 18.3967Z" fill="#EFF6FE"/>
<path fill-rule="evenodd" clip-rule="evenodd" d="M5.19509 2.95131L16.6678 0L16.6867 0.0549975L9.19944 13.6937L16.2947 11.8462L16.32 11.8953L0.037035 36.8264L0 36.7991L7.12244 18.4666L1.49903 20.5006L1.45074 20.462L5.19509 2.95131ZM5.90234 3.55465L2.56052 19.3106L8.49913 17.1554L3.53467 30.0056L14.5565 13.1255L7.63532 14.8706L15.1225 1.23158L5.90234 3.55465Z" fill="#EFF6FE"/>
<path fill-rule="evenodd" clip-rule="evenodd" d="M5.87261 3.51028L2.53125 19.2558L8.46903 17.1021L3.505 29.9441L14.5253 13.0747L7.60534 14.8186L15.0915 1.18872L5.87261 3.51028Z" fill="#202020"/>
<path fill-rule="evenodd" clip-rule="evenodd" d="M3.55664 18.8822L8.48268 17.093L9.25131 17.8608L6.1279 25.9477L13.787 14.214L8.38796 15.5744L7.61929 14.8079L14.4903 2.28394L6.65609 4.25846L3.55664 18.8822Z" fill="#EFF6FE"/>
<path fill-rule="evenodd" clip-rule="evenodd" d="M5.17271 2.89619L16.6565 0L9.17442 13.6382L16.2834 11.8457L0 36.7975L7.09877 18.4108L1.44977 20.4612L5.17271 2.89619ZM5.87948 3.4995L2.5399 19.2545L8.47451 17.0993L3.51339 29.949L14.5278 13.0696L7.6113 14.8147L15.0935 1.17652L5.87948 3.4995Z" fill="#EFF6FE"/>
<path d="M51.8096 25.0795L61.9195 9.77612H66.3581L70.3034 25.0795H65.6183L64.8785 22.2324H58.5907L56.7414 25.0795H51.8096Z" stroke="#EFF6FE" stroke-width="0.510623"/>
<path d="M24.3906 25.0795L27.5966 9.77612H40.1737L39.3107 13.4537H31.6657L31.0492 16.3009H37.8309L37.0912 19.9783H30.3092L29.1995 25.0795H24.3906Z" stroke="#EFF6FE" stroke-width="0.638279"/>
<path d="M39.2207 25.1953L42.4271 9.77612H47.4834L45.0168 21.2812H52.293L51.4296 25.1953H39.2207Z" stroke="#EFF6FE" stroke-width="0.510623"/>
<path d="M86.5947 25.0795L89.8058 9.77612H94.6229L93.5116 15.2331H98.9458L100.181 9.77612H104.999L101.786 25.0795H96.97L98.0821 19.2667H92.6471L91.4121 25.0795H86.5947Z" stroke="#EFF6FE" stroke-width="0.510623"/>
<path d="M75.4977 10.8512C79.7408 8.48227 84.5844 9.86418 86.4758 10.8512L84.6255 14.2862C83.0219 13.2202 80.3083 12.7465 78.8281 13.3386C77.6439 13.8124 77.759 14.4836 77.9647 14.76C78.2113 14.9969 79.0436 15.4273 80.3083 15.7076C81.9118 16.0628 82.9809 16.4972 83.5154 16.7736C87.0678 18.8583 84.9956 22.3011 83.5154 23.7619C79.1735 26.9837 73.3185 25.1044 70.9336 23.7619L72.9073 20.2085C73.8942 21.2746 79.1981 22.4592 80.3083 21.2746C81.1963 20.3271 80.2671 19.8532 79.6915 19.7348C75.9417 19.0715 74.4286 18.037 74.1407 17.6027C71.7723 14.6652 74.0585 11.8778 75.4977 10.8512Z" stroke="#EFF6FE" stroke-width="0.510623"/>
<path fill-rule="evenodd" clip-rule="evenodd" d="M60.8402 9.77612L50.7139 25.0795H55.6535L57.5059 22.2324H63.804L64.545 25.0795H69.2379L65.286 9.77612H60.8402ZM62.1967 14.2891L59.3585 18.8019H63.1838L62.1967 14.2891Z" fill="#EFF6FE"/>
<path d="M50.7205 25.0851L50.7156 25.0821L50.71 25.0907H50.7205V25.0851ZM60.8469 9.78172V9.77612H60.8438L60.8421 9.77871L60.8469 9.78172ZM55.6601 25.0851V25.0907H55.6634L55.6651 25.0881L55.6601 25.0851ZM57.5125 22.238V22.2324H57.5093L57.5076 22.2351L57.5125 22.238ZM63.8107 22.238L63.8163 22.2366L63.8153 22.2324H63.8107V22.238ZM64.5517 25.0851L64.546 25.0865L64.5472 25.0907H64.5517V25.0851ZM69.2445 25.0851V25.0907H69.252L69.2502 25.0838L69.2445 25.0851ZM65.2927 9.78172L65.2983 9.78043L65.2972 9.77612H65.2927V9.78172ZM59.3652 18.8075L59.3603 18.8047L59.3549 18.8131H59.3652V18.8075ZM62.2033 14.2947L62.2091 14.2936L62.206 14.2797L62.1984 14.2919L62.2033 14.2947ZM63.1905 18.8075V18.8131H63.1977L63.1962 18.8064L63.1905 18.8075ZM50.7254 25.0881L60.8518 9.78474L60.8421 9.77871L50.7156 25.0821L50.7254 25.0881ZM55.6601 25.0795H50.7205V25.0907H55.6601V25.0795ZM57.5076 22.2351L55.6552 25.0822L55.6651 25.0881L57.5175 22.241L57.5076 22.2351ZM63.8107 22.2324H57.5125V22.2436H63.8107V22.2324ZM64.5573 25.0837L63.8163 22.2366L63.805 22.2394L64.546 25.0865L64.5573 25.0837ZM69.2445 25.0795H64.5517V25.0907H69.2445V25.0795ZM65.287 9.7831L69.2389 25.0865L69.2502 25.0838L65.2983 9.78043L65.287 9.7831ZM60.8469 9.78732H65.2927V9.77612H60.8469V9.78732ZM59.3702 18.8105L62.2083 14.2976L62.1984 14.2919L59.3603 18.8047L59.3702 18.8105ZM63.1905 18.8019H59.3652V18.8131H63.1905V18.8019ZM62.1977 14.2958L63.1848 18.8087L63.1962 18.8064L62.2091 14.2936L62.1977 14.2958Z" fill="#EFF6FE"/>
<path d="M23.3086 25.0795L26.5207 9.77612H39.1218L38.257 13.4537H30.5975L29.9798 16.3009H36.7745L36.0333 19.9783H29.2386L28.1267 25.0795H23.3086Z" fill="#EFF6FE" stroke="#EFF6FE" stroke-width="0.638279"/>
<path d="M38.1357 25.1953L41.3421 9.77612H46.3983L43.9318 21.2812H51.2079L50.3448 25.1953H38.1357Z" fill="#EFF6FE" stroke="#EFF6FE" stroke-width="0.638279"/>
<path d="M85.5078 25.0795L88.7192 9.77612H93.5358L92.4245 15.2331H97.8596L99.0937 9.77612H103.912L100.699 25.0795H95.8829L96.995 19.2667H91.56L90.325 25.0795H85.5078Z" fill="#EFF6FE" stroke="#EFF6FE" stroke-width="0.638279"/>
<path d="M74.4107 10.8512C78.654 8.48227 83.4975 9.86418 85.3889 10.8512L83.5387 14.2862C81.935 13.2202 79.2213 12.7465 77.7412 13.3386C76.557 13.8124 76.6722 14.4836 76.8778 14.76C77.1244 14.9969 77.9566 15.4273 79.2213 15.7076C80.8249 16.0628 81.894 16.4972 82.4286 16.7736C85.981 18.8583 83.9087 22.3011 82.4286 23.7619C78.0866 26.9837 72.2315 25.1044 69.8467 23.7619L71.8204 20.2085C72.8071 21.2746 78.1111 22.4592 79.2213 21.2746C80.1095 20.3271 79.1803 19.8532 78.6046 19.7348C74.8548 19.0715 73.3416 18.037 73.0538 17.6027C70.6855 14.6652 72.9717 11.8778 74.4107 10.8512Z" fill="#EFF6FE" stroke="#EFF6FE" stroke-width="0.638279"/>
<path d="M71.507 27.0259L71.2431 28.0385H69.0974L67.95 32.291H65.9879L67.1353 28.0385H65.001L65.2765 27.0259H71.507Z" fill="#EFF6FE"/>
<path d="M75.7888 27.0259C76.6208 27.0259 77.2544 27.151 77.6894 27.401C78.1246 27.6459 78.3421 27.9659 78.3421 28.361C78.3421 28.476 78.3268 28.5835 78.2962 28.6835C78.2047 29.0335 77.9718 29.3459 77.5979 29.6211C77.2239 29.8959 76.7239 30.091 76.0979 30.206L77.3918 32.291H75.182L74.0485 30.3035H73.579L73.041 32.291H71.083L72.5028 27.0259H75.7888ZM76.2926 28.7359C76.3079 28.656 76.3154 28.6034 76.3154 28.5784C76.3154 28.4185 76.2353 28.296 76.0751 28.2111C75.9223 28.121 75.6934 28.0759 75.388 28.0759H74.1744L73.8194 29.396H75.0332C75.392 29.396 75.6743 29.3385 75.8804 29.2235C76.0941 29.1085 76.2315 28.946 76.2926 28.7359Z" fill="#EFF6FE"/>
<path d="M83.8328 31.361H80.8259L80.0914 32.291H78.0371L82.3753 27.0259H84.6476L86.1395 32.291H84.0624L83.8328 31.361ZM83.6033 30.3861L83.1326 28.4361L81.5948 30.3861H83.6033Z" fill="#EFF6FE"/>
<path d="M91.4806 27.0259C92.2205 27.0259 92.8573 27.1135 93.3918 27.2885C93.9335 27.4585 94.3452 27.701 94.6277 28.0159C94.9174 28.3261 95.0627 28.691 95.0627 29.111C95.0627 29.2559 95.0358 29.4385 94.9829 29.6585C94.8456 30.1735 94.5479 30.6309 94.0896 31.0311C93.6394 31.4309 93.0636 31.7411 92.3613 31.961C91.6671 32.181 90.9003 32.291 90.0609 32.291H87.0508L88.4701 27.0259H91.4806ZM90.233 31.196C90.973 31.196 91.5873 31.061 92.0752 30.791C92.564 30.5211 92.8689 30.1434 92.9909 29.6585C93.0295 29.5085 93.0483 29.3836 93.0483 29.2835C93.0483 28.9135 92.877 28.6285 92.5335 28.4284C92.19 28.2235 91.7012 28.121 91.068 28.121H90.1299L89.3056 31.196H90.233Z" fill="#EFF6FE"/>
<path d="M98.4933 28.0385L98.2063 29.1334H100.833L100.57 30.101H97.9426L97.6216 31.2786H100.593L100.318 32.291H95.3848L96.8063 27.0259H101.74L101.465 28.0385H98.4933Z" fill="#EFF6FE"/>
<path d="M63.4662 30.6941H65.2652L64.8654 32.2851H63.0664L63.4662 30.6941Z" fill="#EFF6FE"/>
</svg>
