<svg width="201" height="62" viewBox="0 0 201 62" fill="none" xmlns="http://www.w3.org/2000/svg">
<path d="M49.2734 31.2722V31.145C49.2734 23.0695 53.9543 19 60.9584 19C66.9953 19 71.2887 22.0754 71.7402 27.0429H66.3172C65.7361 24.7352 63.6706 23.5503 60.8943 23.5503C56.8587 23.5503 54.8246 25.8891 54.8246 29.253V32.9068C54.8246 36.6819 57.118 38.605 60.6678 38.605C64.1862 38.605 66.2532 36.9068 66.4469 33.8299H60.6037V30.1183H71.9012V42.6805H67.9952L67.6078 38.7382H67.4156C66.4782 41.3669 63.4769 43 59.7647 43C52.9856 43 49.2734 38.9956 49.2734 31.2722Z" fill="#EFF6FE"/>
<path d="M77.873 31.0801V30.9839C77.873 23.1984 82.3601 19.0327 89.3657 19.0327C96.3713 19.0327 100.857 23.1984 100.857 30.9839V31.0801C100.857 38.4499 96.951 43.0002 89.3657 43.0002C81.7804 43.0002 77.873 38.4573 77.873 31.0801ZM95.3088 32.8434V29.1895C95.3088 25.8892 93.3715 23.5815 89.3687 23.5815C85.3659 23.5815 83.4286 25.8892 83.4286 29.1895V32.8434C83.4286 36.4321 85.6565 38.4499 89.3687 38.4499C93.0809 38.4499 95.3058 36.4321 95.3058 32.8434H95.3088Z" fill="#EFF6FE"/>
<path d="M112.676 19.3208H120.005L127.945 42.6803H122.716L121.135 38.0013H111.448L109.867 42.6803H104.765L112.676 19.3208ZM119.908 33.9954L117.584 27.0101L116.391 23.3888H116.199L115.007 27.0101L112.676 33.9954H119.908Z" fill="#EFF6FE"/>
<path d="M142.535 23.8119V42.6803H137.274V23.8119H130.237V19.3208H149.573V23.8119H142.535Z" fill="#EFF6FE"/>
<path d="M155.124 19.3208H173.041V23.7749H160.419V28.7409H171.391V32.9066H160.416V38.232H173.038V42.6862H155.124V19.3208Z" fill="#EFF6FE"/>
<path d="M179.927 19.2886H189.573C197.126 19.2886 201 23.6466 201 30.8877V31.1125C201 39.0267 196.416 42.6806 189.573 42.6806H179.921L179.927 19.2886ZM189.579 38.2235C193.419 38.2235 195.422 36.1717 195.422 32.7753V29.1895C195.422 25.9217 193.549 23.7427 189.579 23.7427H185.222V38.2264L189.579 38.2235Z" fill="#EFF6FE"/>
<path d="M0 25.6583L6.61813 32.1391L3.43946 25.6583L6.00266 22.7707L10.9979 28.7707L14.1453 42.247L18.9796 46V29.605L5.25606 16L0 25.6583Z" fill="#EFF6FE"/>
<path d="M37.9574 25.6583L32.7029 16L22.2012 26.4098V34.4867L26.9595 28.7707L31.9562 22.7707L34.5194 25.6583L31.3393 32.1391L37.9574 25.6583Z" fill="#EFF6FE"/>
</svg>
