<svg width="201" height="31" viewBox="0 0 201 31" fill="none" xmlns="http://www.w3.org/2000/svg">
<path d="M49.2734 15.4639V15.3351C49.2734 7.15825 53.9543 3.0376 60.9584 3.0376C66.9953 3.0376 71.2887 6.15168 71.7402 11.1815H66.3172C65.736 8.84485 63.6706 7.64505 60.8943 7.64505C56.8587 7.64505 54.8246 10.0132 54.8246 13.4194V17.1191C54.8246 20.9417 57.118 22.8889 60.6678 22.8889C64.1862 22.8889 66.2532 21.1693 66.4469 18.0538H60.6037V14.2956H71.9012V27.0155H67.9952L67.6078 23.0237H67.4156C66.4782 25.6854 63.4769 27.3391 59.7647 27.3391C52.9856 27.3391 49.2734 23.2843 49.2734 15.4639Z" fill="#EFF6FE"/>
<path d="M77.873 15.2695V15.1721C77.873 7.28881 82.3601 3.0708 89.3657 3.0708C96.3713 3.0708 100.857 7.28881 100.857 15.1721V15.2695C100.857 22.7319 96.951 27.3393 89.3657 27.3393C81.7804 27.3393 77.873 22.7394 77.873 15.2695ZM95.3088 17.0549V13.3552C95.3088 10.0134 93.3715 7.67676 89.3687 7.67676C85.3659 7.67676 83.4286 10.0134 83.4286 13.3552V17.0549C83.4286 20.6888 85.6565 22.7319 89.3687 22.7319C93.0809 22.7319 95.3058 20.6888 95.3058 17.0549H95.3088Z" fill="#EFF6FE"/>
<path d="M112.676 3.36255H120.005L127.945 27.0154H122.716L121.135 22.2777H111.448L109.867 27.0154H104.765L112.676 3.36255ZM119.908 18.2214L117.584 11.1485L116.391 7.4817H116.199L115.007 11.1485L112.676 18.2214H119.908Z" fill="#EFF6FE"/>
<path d="M142.535 7.91009V27.0154H137.274V7.91009H130.237V3.36255H149.573V7.91009H142.535Z" fill="#EFF6FE"/>
<path d="M155.124 3.36255H173.041V7.87264H160.419V12.901H171.391V17.119H160.416V22.5113H173.038V27.0214H155.124V3.36255Z" fill="#EFF6FE"/>
<path d="M179.927 3.32983H189.573C197.126 3.32983 201 7.74257 201 15.0747V15.3023C201 23.3159 196.416 27.0157 189.573 27.0157H179.921L179.927 3.32983ZM189.579 22.5026C193.419 22.5026 195.422 20.4251 195.422 16.9859V13.3551C195.422 10.0463 193.549 7.83993 189.579 7.83993H185.222V22.5056L189.579 22.5026Z" fill="#EFF6FE"/>
<path d="M0 9.77961L6.61813 16.3418L3.43946 9.77961L6.00266 6.85576L10.9979 12.9311L14.1453 26.5767L18.9796 30.3769V13.7759L5.25606 0L0 9.77961Z" fill="#EFF6FE"/>
<path d="M37.9574 9.77961L32.7029 0L22.2012 10.5405V18.7189L26.9595 12.9311L31.9562 6.85576L34.5194 9.77961L31.3393 16.3418L37.9574 9.77961Z" fill="#EFF6FE"/>
</svg>
