<svg width="176" height="63" viewBox="0 0 176 63" fill="none" xmlns="http://www.w3.org/2000/svg">
<path fill-rule="evenodd" clip-rule="evenodd" d="M52.8856 54.3844H9.20681V52.6715H52.8856V54.3844Z" fill="#EFF6FE"/>
<path fill-rule="evenodd" clip-rule="evenodd" d="M47.9611 58.0377H14.1314V56.6606H47.9611V58.0377Z" fill="#EFF6FE"/>
<path fill-rule="evenodd" clip-rule="evenodd" d="M47.9611 58.2384H14.1314V56.5255H47.9611V58.2384Z" fill="#EFF6FE"/>
<path fill-rule="evenodd" clip-rule="evenodd" d="M40.253 62.0925H21.8394V60.3796H40.253V62.0925Z" fill="#EFF6FE"/>
<path fill-rule="evenodd" clip-rule="evenodd" d="M30.1254 46.1795V22.769H31.9605V46.1795H30.1254Z" fill="#EFF6FE"/>
<path fill-rule="evenodd" clip-rule="evenodd" d="M31.043 23.075C31.043 23.075 31.5293 10.9479 24.1223 3.5366C19.7971 -0.791167 15.0441 -0.508953 9.06875 1.02494L30.3204 22.35C28.1089 20.2315 21.0548 14.2004 12.4195 14.2004C6.30263 14.2004 3.14117 17.7628 0 23.0751H30.0727C27.0726 23.143 17.7792 23.8671 11.6394 30.0104C7.3141 34.3382 7.59615 39.094 9.12916 45.0728L31.043 23.075Z" fill="#EFF6FE"/>
<path fill-rule="evenodd" clip-rule="evenodd" d="M31.0495 23.075C31.0495 23.075 30.5631 10.9479 37.9701 3.5366C42.2954 -0.791167 47.0484 -0.508953 53.0237 1.02494L31.772 22.35C33.9835 20.2315 41.0377 14.2004 49.673 14.2004C55.7898 14.2004 58.9513 17.7628 62.0925 23.0751H32.0198C35.0199 23.143 44.3133 23.8671 50.4531 30.0104C54.7784 34.3382 54.4963 39.094 52.9633 45.0728L31.0495 23.075Z" fill="#EFF6FE"/>
<path d="M40.2182 54.136C40.1764 49.1431 36.0845 45.1084 31.043 45.1084C26.0014 45.1084 21.9095 49.1431 21.8677 54.136H40.2182Z" fill="#EFF6FE"/>
<path fill-rule="evenodd" clip-rule="evenodd" d="M38.7042 52.7589C38.0183 49.1933 34.8572 46.4855 31.043 46.4855C27.2288 46.4855 24.0676 49.1933 23.3817 52.7589H38.7042ZM40.1021 52.7589C39.4005 48.4217 35.6117 45.1084 31.043 45.1084C26.4742 45.1084 22.6854 48.4217 21.9838 52.7589C21.9112 53.2078 21.8716 53.6676 21.8677 54.136H40.2182C40.2143 53.6676 40.1747 53.2078 40.1021 52.7589Z" fill="#EFF6FE"/>
<path d="M78.7645 46.3682H74.9395V15.9156H78.7645V46.3682Z" fill="#EFF6FE"/>
<path d="M82.3382 16.9829C83.3552 15.9686 84.5695 15.4614 85.9811 15.4614C87.4079 15.4614 88.6222 15.9686 89.624 16.9829C90.641 17.9821 91.1495 19.1857 91.1495 20.5936V27.5198H87.2561V20.1622C87.2561 19.7988 87.1347 19.496 86.8919 19.2538C86.6338 19.0116 86.3302 18.8905 85.9811 18.8905C85.632 18.8905 85.336 19.0116 85.0932 19.2538C84.8503 19.496 84.7289 19.7988 84.7289 20.1622V27.6788C84.7289 28.027 84.8275 28.3222 85.0249 28.5644C85.2525 28.8067 85.5334 28.9278 85.8673 28.9278H86.5959C87.6736 28.9278 88.5767 29.2154 89.3053 29.7907C89.8821 30.26 90.3299 30.8959 90.6486 31.6983C91.0129 32.6066 91.1799 33.5225 91.1495 34.446V42.2352C91.0281 43.5523 90.4741 44.6574 89.4874 45.5506C88.5008 46.4439 87.332 46.8905 85.9811 46.8905C84.6454 46.8905 83.4842 46.4439 82.4976 45.5506C81.511 44.6574 80.9569 43.5598 80.8355 42.2579V34.8775H84.7289V42.2124C84.7289 42.5606 84.8503 42.8559 85.0932 43.0981C85.336 43.3403 85.632 43.4614 85.9811 43.4614C86.3302 43.4614 86.6338 43.3403 86.8919 43.0981C87.1347 42.8559 87.2561 42.5606 87.2561 42.2124V34.4687C87.2561 33.6209 86.8767 33.197 86.1177 33.197H85.8673C84.4101 33.197 83.173 32.6293 82.1561 31.4939C81.2757 30.5098 80.8355 29.3668 80.8355 28.0648V20.5936C80.8355 19.1857 81.3364 17.9821 82.3382 16.9829Z" fill="#EFF6FE"/>
<path d="M97.1139 42.5531H100.916V46.3682H93.2888V15.9156H97.1139V42.5531Z" fill="#EFF6FE"/>
<path d="M107.746 39.124H109.727L108.725 31.1305L107.746 39.124ZM110.637 46.3682L110.205 42.9164H107.268L106.835 46.3682H103.01L106.835 15.9156H110.637L114.462 46.3682H110.637Z" fill="#EFF6FE"/>
<path d="M122.908 15.9156H126.734V46.3682H122.908L120.381 33.3106V46.3682H116.556V15.9156H120.381L122.908 29.9724V15.9156Z" fill="#EFF6FE"/>
<path d="M134.838 40.8953V21.4339C134.838 20.7526 134.61 20.2833 134.155 20.0259C133.927 19.9048 133.7 19.8518 133.472 19.8669H132.652V42.4622H133.472C133.7 42.4774 133.927 42.4244 134.155 42.3033C134.61 42.0459 134.838 41.5766 134.838 40.8953ZM138.731 20.8434L138.709 41.4858C138.709 41.9097 138.701 42.273 138.686 42.5758C138.64 43.3782 138.534 44.0216 138.367 44.506C137.927 45.7475 136.933 46.3682 135.385 46.3682H128.827V15.9156H135.498C137.031 15.9156 138.003 16.5439 138.413 17.8004C138.58 18.2849 138.678 18.9283 138.709 19.7307C138.724 20.0335 138.731 20.4044 138.731 20.8434Z" fill="#EFF6FE"/>
<path d="M146.836 40.8953V21.4339C146.836 20.7526 146.608 20.2833 146.153 20.0259C145.925 19.9048 145.698 19.8518 145.47 19.8669H144.65V42.4622H145.47C145.698 42.4774 145.925 42.4244 146.153 42.3033C146.608 42.0459 146.836 41.5766 146.836 40.8953ZM150.729 20.8434L150.707 41.4858C150.707 41.9097 150.699 42.273 150.684 42.5758C150.638 43.3782 150.532 44.0216 150.365 44.506C149.925 45.7475 148.931 46.3682 147.382 46.3682H140.825V15.9156H147.496C149.029 15.9156 150.001 16.5439 150.411 17.8004C150.578 18.2849 150.676 18.9283 150.707 19.7307C150.722 20.0335 150.729 20.4044 150.729 20.8434Z" fill="#EFF6FE"/>
<path d="M157.559 39.124H159.54L158.538 31.1305L157.559 39.124ZM160.451 46.3682L160.018 42.9164H157.081L156.648 46.3682H152.823L156.648 15.9156H160.451L164.276 46.3682H160.451Z" fill="#EFF6FE"/>
<path d="M169.557 20.094V42.2124C169.557 42.5606 169.686 42.8559 169.944 43.0981C170.187 43.3403 170.483 43.4614 170.832 43.4614C171.181 43.4614 171.485 43.3403 171.743 43.0981C171.985 42.8559 172.107 42.5606 172.107 42.2124V20.094C172.107 19.7458 171.985 19.4506 171.743 19.2084C171.485 18.951 171.181 18.8223 170.832 18.8223C170.483 18.8223 170.187 18.951 169.944 19.2084C169.686 19.4506 169.557 19.7458 169.557 20.094ZM167.189 16.9148C168.206 15.9156 169.42 15.416 170.832 15.416C172.259 15.416 173.473 15.9156 174.475 16.9148C175.492 17.9291 176 19.1403 176 20.5482V41.7583C176 43.1662 175.492 44.3774 174.475 45.3917C173.473 46.3909 172.259 46.8905 170.832 46.8905C169.42 46.8905 168.206 46.3909 167.189 45.3917C166.187 44.3774 165.686 43.1662 165.686 41.7583V20.5482C165.686 19.1403 166.187 17.9291 167.189 16.9148Z" fill="#EFF6FE"/>
</svg>
