<svg width="201" height="61" viewBox="0 0 201 61" fill="none" xmlns="http://www.w3.org/2000/svg">
<path fill-rule="evenodd" clip-rule="evenodd" d="M58.8856 53.4276H15.2068V51.7448H58.8856V53.4276Z" fill="#EFF6FE"/>
<path fill-rule="evenodd" clip-rule="evenodd" d="M53.9611 57.0166H20.1314V55.6637H53.9611V57.0166Z" fill="#EFF6FE"/>
<path fill-rule="evenodd" clip-rule="evenodd" d="M53.9611 57.2138H20.1314V55.531H53.9611V57.2138Z" fill="#EFF6FE"/>
<path fill-rule="evenodd" clip-rule="evenodd" d="M46.253 61H27.8394V59.3172H46.253V61Z" fill="#EFF6FE"/>
<path fill-rule="evenodd" clip-rule="evenodd" d="M36.1254 45.367V22.3684H37.9605V45.367H36.1254Z" fill="#EFF6FE"/>
<path fill-rule="evenodd" clip-rule="evenodd" d="M37.043 22.669C37.043 22.669 37.5293 10.7553 30.1223 3.47437C25.7971 -0.777247 21.0441 -0.499998 15.0688 1.00691L36.3204 21.9568C34.1089 19.8755 27.0548 13.9506 18.4195 13.9506C12.3026 13.9506 9.14117 17.4503 6 22.6691H36.0727C33.0726 22.7358 23.7792 23.4471 17.6394 29.4824C13.3141 33.7341 13.5962 38.4062 15.1292 44.2797L37.043 22.669Z" fill="#EFF6FE"/>
<path fill-rule="evenodd" clip-rule="evenodd" d="M37.0495 22.669C37.0495 22.669 36.5631 10.7553 43.9701 3.47437C48.2954 -0.777247 53.0484 -0.499998 59.0237 1.00691L37.772 21.9568C39.9835 19.8755 47.0377 13.9506 55.673 13.9506C61.7898 13.9506 64.9513 17.4503 68.0925 22.6691H38.0198C41.0199 22.7358 50.3133 23.4471 56.4531 29.4824C60.7784 33.7341 60.4963 38.4062 58.9633 44.2797L37.0495 22.669Z" fill="#EFF6FE"/>
<path d="M46.2182 53.1835C46.1764 48.2784 42.0845 44.3148 37.043 44.3148C32.0014 44.3148 27.9095 48.2784 27.8677 53.1835H46.2182Z" fill="#EFF6FE"/>
<path fill-rule="evenodd" clip-rule="evenodd" d="M44.7042 51.8306C44.0183 48.3278 40.8572 45.6676 37.043 45.6676C33.2288 45.6676 30.0676 48.3278 29.3817 51.8306H44.7042ZM46.1021 51.8306C45.4005 47.5698 41.6117 44.3148 37.043 44.3148C32.4742 44.3148 28.6854 47.5698 27.9838 51.8306C27.9112 52.2716 27.8716 52.7234 27.8677 53.1835H46.2182C46.2143 52.7234 46.1747 52.2716 46.1021 51.8306Z" fill="#EFF6FE"/>
<path d="M97.7645 45.5524H93.9395V15.6356H97.7645V45.5524Z" fill="#EFF6FE"/>
<path d="M101.338 16.6841C102.355 15.6876 103.569 15.1894 104.981 15.1894C106.408 15.1894 107.622 15.6876 108.624 16.6841C109.641 17.6657 110.15 18.8481 110.15 20.2313V27.0356H106.256V19.8074C106.256 19.4505 106.135 19.153 105.892 18.915C105.634 18.6771 105.33 18.5581 104.981 18.5581C104.632 18.5581 104.336 18.6771 104.093 18.915C103.85 19.153 103.729 19.4505 103.729 19.8074V27.1918C103.729 27.5339 103.828 27.8239 104.025 28.0619C104.253 28.2998 104.533 28.4188 104.867 28.4188H105.596C106.674 28.4188 107.577 28.7014 108.305 29.2666C108.882 29.7276 109.33 30.3523 109.649 31.1405C110.013 32.0329 110.18 32.9327 110.15 33.84V41.4921C110.028 42.786 109.474 43.8717 108.487 44.7492C107.501 45.6267 106.332 46.0655 104.981 46.0655C103.645 46.0655 102.484 45.6267 101.498 44.7492C100.511 43.8717 99.9569 42.7934 99.8355 41.5144V34.2638H103.729V41.4698C103.729 41.8118 103.85 42.1018 104.093 42.3398C104.336 42.5778 104.632 42.6968 104.981 42.6968C105.33 42.6968 105.634 42.5778 105.892 42.3398C106.135 42.1018 106.256 41.8118 106.256 41.4698V33.8623C106.256 33.0294 105.877 32.613 105.118 32.613H104.867C103.41 32.613 102.173 32.0552 101.156 30.9398C100.276 29.973 99.8355 28.8501 99.8355 27.5711V20.2313C99.8355 18.8481 100.336 17.6657 101.338 16.6841Z" fill="#EFF6FE"/>
<path d="M116.114 41.8044H119.916V45.5524H112.289V15.6356H116.114V41.8044Z" fill="#EFF6FE"/>
<path d="M126.746 38.4357H128.727L127.725 30.5828L126.746 38.4357ZM129.637 45.5524L129.205 42.1613H126.268L125.835 45.5524H122.01L125.835 15.6356H129.637L133.462 45.5524H129.637Z" fill="#EFF6FE"/>
<path d="M141.908 15.6356H145.734V45.5524H141.908L139.381 32.7245V45.5524H135.556V15.6356H139.381L141.908 29.445V15.6356Z" fill="#EFF6FE"/>
<path d="M153.838 40.1758V21.0567C153.838 20.3875 153.61 19.9264 153.155 19.6736C152.927 19.5546 152.7 19.5025 152.472 19.5174H151.652V41.7152H152.472C152.7 41.73 152.927 41.678 153.155 41.559C153.61 41.3061 153.838 40.8451 153.838 40.1758ZM157.731 20.4767L157.709 40.7559C157.709 41.1723 157.701 41.5292 157.686 41.8267C157.64 42.615 157.534 43.2471 157.367 43.723C156.927 44.9426 155.933 45.5524 154.385 45.5524H147.827V15.6356H154.498C156.031 15.6356 157.003 16.2528 157.413 17.4873C157.58 17.9632 157.678 18.5953 157.709 19.3835C157.724 19.681 157.731 20.0454 157.731 20.4767Z" fill="#EFF6FE"/>
<path d="M165.836 40.1758V21.0567C165.836 20.3875 165.608 19.9264 165.153 19.6736C164.925 19.5546 164.698 19.5025 164.47 19.5174H163.65V41.7152H164.47C164.698 41.73 164.925 41.678 165.153 41.559C165.608 41.3061 165.836 40.8451 165.836 40.1758ZM169.729 20.4767L169.707 40.7559C169.707 41.1723 169.699 41.5292 169.684 41.8267C169.638 42.615 169.532 43.2471 169.365 43.723C168.925 44.9426 167.931 45.5524 166.382 45.5524H159.825V15.6356H166.496C168.029 15.6356 169.001 16.2528 169.411 17.4873C169.578 17.9632 169.676 18.5953 169.707 19.3835C169.722 19.681 169.729 20.0454 169.729 20.4767Z" fill="#EFF6FE"/>
<path d="M176.559 38.4357H178.54L177.538 30.5828L176.559 38.4357ZM179.45 45.5524L179.018 42.1613H176.081L175.648 45.5524H171.823L175.648 15.6356H179.45L183.276 45.5524H179.45Z" fill="#EFF6FE"/>
<path d="M188.557 19.7405V41.4698C188.557 41.8118 188.686 42.1018 188.944 42.3398C189.187 42.5778 189.483 42.6968 189.832 42.6968C190.181 42.6968 190.485 42.5778 190.743 42.3398C190.985 42.1018 191.107 41.8118 191.107 41.4698V19.7405C191.107 19.3984 190.985 19.1084 190.743 18.8704C190.485 18.6176 190.181 18.4912 189.832 18.4912C189.483 18.4912 189.187 18.6176 188.944 18.8704C188.686 19.1084 188.557 19.3984 188.557 19.7405ZM186.189 16.6172C187.206 15.6356 188.42 15.1448 189.832 15.1448C191.259 15.1448 192.473 15.6356 193.475 16.6172C194.492 17.6137 195 18.8035 195 20.1867V41.0236C195 42.4067 194.492 43.5966 193.475 44.5931C192.473 45.5747 191.259 46.0655 189.832 46.0655C188.42 46.0655 187.206 45.5747 186.189 44.5931C185.187 43.5966 184.686 42.4067 184.686 41.0236V20.1867C184.686 18.8035 185.187 17.6137 186.189 16.6172Z" fill="#EFF6FE"/>
</svg>
