<svg width="201" height="39" viewBox="0 0 201 39" fill="none" xmlns="http://www.w3.org/2000/svg">
<path d="M158.536 22.9183C157.614 21.3829 155.499 20.3252 152.838 20.3252C147.993 20.3252 144.444 23.6348 144.444 29.5375C144.444 35.2014 147.754 38.7498 152.838 38.7498C155.567 38.7498 157.683 37.5216 158.57 35.9861L158.877 38.4086H163.312V13.9033H158.536V22.9183ZM153.93 34.4849C151.268 34.4849 149.357 32.6423 149.357 29.5375C149.357 26.5009 151.268 24.5902 153.93 24.5902C156.489 24.5902 158.433 26.4667 158.433 29.5375C158.433 32.6423 156.489 34.4849 153.93 34.4849Z" fill="#EFF6FE"/>
<path d="M182.023 34.2427C181.714 34.2253 180.927 34.0663 180.827 32.916V27.1081C180.827 21.8068 176.756 20.0398 172.823 20.0398C168.305 20.0398 165.057 22.2831 164.772 26.0136H169.247C169.568 24.7221 170.833 23.8857 172.614 23.8857C174.633 23.8857 175.92 24.9945 175.92 27.0041V27.3546H171.998C168.097 27.3546 166.329 28.9699 166.329 28.9699L166.399 28.96C164.979 29.9113 164.297 31.3945 164.297 33.2062C164.297 36.671 166.872 38.75 170.874 38.75C173.554 38.75 175.642 37.8145 176.651 36.2899C177.034 37.8491 178.356 38.4035 179.957 38.4035H181.883V38.4081H182.655V34.2427H182.023ZM175.92 31.6123C175.92 33.7606 174.528 34.9387 172.127 34.9387C170.526 34.9387 169.308 34.3843 169.308 32.8944C169.308 31.9242 169.865 30.9541 171.953 30.9541H175.92V31.6123Z" fill="#EFF6FE"/>
<path d="M191.527 20.291C197.064 20.291 200.999 24.0442 200.999 29.5374C200.999 35.0648 197.064 38.7498 191.527 38.7498C185.991 38.7498 182.056 35.0648 182.056 29.5374C182.056 24.0442 185.991 20.291 191.527 20.291ZM191.527 34.6896C194.244 34.6896 196.02 32.6423 196.02 29.5034C196.02 26.3302 194.244 24.3513 191.527 24.3513C188.811 24.3513 187.035 26.3302 187.035 29.5034C187.035 32.6423 188.811 34.6896 191.527 34.6896Z" fill="#EFF6FE"/>
<path d="M143.157 22.3374V38.3771H135.773V23.8428C135.773 19.3787 133.626 17.0948 130.065 17.0948C126.189 17.0948 124.094 19.7421 124.094 24.1023V38.3771H116.763V11.3848C118.929 11.3845 121.096 11.3842 123.262 11.3839C123.505 12.4569 123.747 13.53 123.99 14.6031C125.404 12.3711 128.127 10.8657 132.212 10.8657C139.177 10.8657 143.157 15.4337 143.157 22.3374Z" fill="#EFF6FE"/>
<path d="M115.066 32.2458C115.03 32.2476 114.995 32.2512 114.959 32.2512H110.821C109.652 32.2512 108.704 31.3037 108.704 30.1349V29.4224C108.687 29.1928 108.678 28.9463 108.678 28.6802V17.6047H114.91V11.3837H108.637V3.86572H101.363V11.3837H96.8838V17.6013H97.1569V17.6047H101.346V30.3074C101.346 35.2415 103.965 38.3909 109.359 38.3909C111.281 38.3898 113.203 38.3887 115.125 38.3875C115.105 36.3403 115.086 34.2931 115.066 32.2458Z" fill="#EFF6FE"/>
<path d="M87.1017 10.6357C86.6514 10.5895 86.197 10.571 85.7412 10.5814C82.3998 10.6298 79.2338 12.099 77.6375 15.24C77.082 14.1812 76.3646 13.3133 75.5213 12.6247C74.7881 12.014 73.975 11.5683 73.1174 11.2536C71.9107 10.7996 70.5716 10.5791 69.1536 10.5791C68.7166 10.5791 68.2938 10.6018 67.8853 10.6453C67.851 10.6478 67.8165 10.6496 67.7822 10.6522C66.9954 10.7121 66.2817 10.897 65.6435 11.1502C64.5071 11.5633 63.5505 12.1944 62.8077 13.0218C62.3875 13.4328 62.1132 13.7784 61.9963 13.9345L61.9138 13.6412L61.2459 11.1028H61.1999L61.1989 11.0992H54.4365V11.6396L54.4378 11.6414V38.335H61.7696V23.0955C61.7696 19.0631 63.8643 17.1254 66.9541 17.1254C69.8868 17.1254 71.8768 18.9583 71.8768 23.4097V38.335H78.9467V23.2527C79.0514 19.0107 81.251 17.1254 84.1313 17.1254C87.1164 17.1254 89.054 18.9583 89.054 23.0431V38.3874H96.4382V21.5768C96.4382 14.5884 92.0757 11.1084 87.1017 10.6357Z" fill="#EFF6FE"/>
<path d="M27.8685 26.8035C35.2701 26.8035 41.2703 20.8033 41.2703 13.4017C41.2703 6.00016 35.2701 0 27.8685 0C20.467 0 14.4668 6.00016 14.4668 13.4017C14.4668 20.8033 20.467 26.8035 27.8685 26.8035Z" fill="#EFF6FE"/>
<path d="M27.8526 23.1126C33.2066 23.1126 37.5469 18.7723 37.5469 13.4182C37.5469 8.06419 33.2066 3.72388 27.8526 3.72388C22.4985 3.72388 18.1582 8.06419 18.1582 13.4182C18.1582 18.7723 22.4985 23.1126 27.8526 23.1126Z" fill="#9B9B9B"/>
<path d="M18.8781 36.772H18.0987H17.3193V35.9926V35.2132H16.5399H15.7606V34.4338V33.6544H14.9812H14.2018V32.8751V32.0957V31.3163V30.5369H13.4224H12.643V29.7575V28.9781V28.1988V27.4194V26.64V25.8606H11.8636H11.0842V26.64V27.4194H10.3049H9.52547V28.1988V28.9781H8.74609H7.9667V29.7575V30.5369H7.18732H6.40793H5.62855H4.84916V31.3163V32.0957H4.06978H3.29039V32.8751V33.6544H2.51101H1.73162V34.4338V35.2132V35.9926V36.772H0.952237H0.172852V37.5514V38.3308H0.952237H1.73162H2.51101H3.29039H4.06978H4.84916V37.5514V36.772H5.62855H6.40793V35.9926V35.2132H7.18732H7.9667V34.4338V33.6544H8.74609H9.52547V34.4338V35.2132V35.9926V36.772V37.5514V38.3308H10.3049H11.0842V37.5514V36.772V35.9926V35.2132H11.8636H12.643V35.9926V36.772H13.4224H14.2018V37.5514V38.3308H14.9812H15.7606H16.5399H17.3193H18.0987H18.8781V37.5514V36.772Z" fill="#9B9B9B"/>
<path d="M14.2015 36.7719H13.4221H12.6428V35.9925V35.2131H11.8634H11.084V35.9925V36.7719V37.5513V38.3307H11.8634H12.6428H13.4221H14.2015V37.5513V36.7719Z" fill="#EFF6FE"/>
<path d="M23.5547 30.537H24.3341H25.1135V29.7577V28.9783H24.3341H23.5547V29.7577V30.537Z" fill="#EFF6FE"/>
<path d="M25.1133 32.0956H25.8927H26.6721V31.3163V30.5369H25.8927H25.1133V31.3163V32.0956Z" fill="#EFF6FE"/>
<path d="M50.0537 32.0956H50.8331H51.6125V31.3163V30.5369H50.8331H50.0537V31.3163V32.0956Z" fill="#EFF6FE"/>
<path d="M51.6113 33.6545H52.3907H53.1701V32.8751V32.0957H52.3907H51.6113V32.8751V33.6545Z" fill="#EFF6FE"/>
<path d="M54.7306 28.9783H53.9513H53.1719V29.7577V30.537H53.9513H54.7306V29.7577V28.9783Z" fill="#EFF6FE"/>
<path d="M56.2892 30.5369H55.5099H54.7305V31.3163V32.0956H55.5099H56.2892V31.3163V30.5369Z" fill="#EFF6FE"/>
<path d="M56.2894 36.7719V35.9925V35.2131H55.51H54.7306V35.9925V36.7719H53.9513H53.1719V37.5513V38.3307H53.9513H54.7306H55.51H56.2894V37.5513V36.7719Z" fill="#EFF6FE"/>
<path d="M57.8478 32.0957H57.0684H56.2891V32.8751V33.6545H57.0684H57.8478V32.8751V32.0957Z" fill="#EFF6FE"/>
<path d="M65.6415 36.7718H64.8621H64.0827H63.3034H62.524V35.9925V35.2131H61.7446H60.9652V34.4337V33.6543H60.1858H59.4064H58.627H57.8477V34.4337V35.2131H58.627H59.4064V35.9925V36.7718H60.1858H60.9652V37.5512V38.3306H61.7446H62.524H63.3034H64.0827H64.8621H65.6415V37.5512V36.7718Z" fill="#EFF6FE"/>
<path d="M39.1418 10.2728V9.49343V8.71404V7.93466V7.15527H38.3624H37.583V7.93466V8.71404V9.49343V10.2728H38.3624H39.1418Z" fill="#9B9B9B"/>
<path d="M42.2599 5.59661V4.81723V4.03784H41.4806H40.7012V4.81723V5.59661H41.4806H42.2599Z" fill="#EFF6FE"/>
<path d="M48.4955 36.7721H47.7161H46.9367V35.9927V35.2133H46.1573H45.3779V34.4339V33.6545V32.8752V32.0958H44.5985H43.8191V31.3164V30.537V29.7576V28.9782V28.1989V27.4195V26.6401V25.8607V25.0813V24.3019H43.0398H42.2604V23.5225V22.7432H41.481H40.7016V21.9638V21.1844V20.405V19.6256H41.481H42.2604V20.405V21.1844V21.9638V22.7432H43.0398H43.8191V23.5225V24.3019H44.5985H45.3779V25.0813V25.8607H46.1573H46.9367V26.6401V27.4195V28.1989V28.9782H47.7161H48.4955V29.7576V30.537H49.2748H50.0542V29.7576V28.9782V28.1989V27.4195H49.2748H48.4955V26.6401V25.8607V25.0813V24.3019H47.7161H46.9367V23.5225V22.7432V21.9638V21.1844H46.1573H45.3779V20.405V19.6256H44.5985H43.8191V18.8462V18.0668V17.2875V16.5081H43.0398H42.2604V15.7287V14.9493V14.1699V13.3905H41.481H40.7016V12.6111V11.8318V11.0524V10.273V9.49361V8.71422V7.93484V7.15545V6.37606V5.59668H39.9222H39.1428V6.37606V7.15545V7.93484V8.71422V9.49361V10.273H38.3635H37.5841V11.0524V11.8318V12.6111V13.3905H36.8047H36.0253V14.1699V14.9493V15.7287V16.5081H35.2459H34.4665V17.2875V18.0668V18.8462V19.6256V20.405V21.1844H33.6871H32.9078V21.9638V22.7432V23.5225V24.3019H32.1284H31.349V25.0813V25.8607H30.5696H29.7902V26.6401V27.4195H29.0108H28.2314V28.1989V28.9782V29.7576V30.537H29.0108H29.7902V29.7576V28.9782H30.5696H31.349H32.1284H32.9078V28.1989V27.4195H33.6871H34.4665V26.6401V25.8607H35.2459H36.0253V26.6401V27.4195V28.1989V28.9782H35.2459H34.4665V29.7576V30.537V31.3164V32.0958H35.2459H36.0253V31.3164V30.537H36.8047H37.5841V29.7576V28.9782H38.3635H39.1428V28.1989V27.4195H39.9222H40.7016V28.1989V28.9782V29.7576V30.537H39.9222H39.1428V31.3164V32.0958V32.8752V33.6545H38.3635H37.5841V34.4339V35.2133V35.9927V36.7721H38.3635H39.1428V37.5515V38.3309H39.9222H40.7016H41.481H42.2604H43.0398H43.8191H44.5985H45.3779H46.1573H46.9367H47.7161H48.4955V37.5515V36.7721Z" fill="#EFF6FE"/>
<path d="M26.6719 33.6545H27.4513H28.2306V32.8751V32.0957H27.4513H26.6719V32.8751V33.6545Z" fill="#EFF6FE"/>
<path d="M28.2314 35.2131H29.0108H29.7902V34.4337V33.6543H29.0108H28.2314V34.4337V35.2131Z" fill="#EFF6FE"/>
<path d="M29.79 36.7719H30.5694H31.3488V35.9925V35.2131H30.5694H29.79V35.9925V36.7719Z" fill="#EFF6FE"/>
<path d="M21.9961 27.4194V28.1988V28.9781H22.7755H23.5549V28.1988V27.4194V26.64V25.8606H22.7755H21.9961V26.64V27.4194Z" fill="#EFF6FE"/>
<path d="M39.1427 36.772H38.3634H37.584V35.9927V35.2133V34.4339V33.6545H38.3634H39.1427V32.8751V32.0957V31.3163V30.537H39.9221H40.7015V29.7576V28.9782V28.1988V27.4194H39.9221H39.1427V28.1988V28.9782H38.3634H37.584V29.7576V30.537H36.8046H36.0252V31.3163V32.0957H35.2458H34.4664V31.3163V30.537V29.7576V28.9782H35.2458H36.0252V28.1988V27.4194V26.64V25.8607H35.2458H34.4664V26.64V27.4194H33.687H32.9077V28.1988V28.9782H32.1283H31.3489H30.5695H29.7901V29.7576V30.537H29.0107H28.2314V29.7576V28.9782V28.1988V27.4194H29.0107H29.7901V26.64V25.8607H30.5695H31.3489V25.0813V24.3019H32.1283H32.9077V23.5225V22.7431V21.9637V21.1843H33.687H34.4664V20.405V19.6256V18.8462V18.0668V17.2874V16.508H35.2458H36.0252V15.7286V14.9493V14.1699V13.3905H36.8046H37.584V12.6111V11.8317V11.0523V10.2729H36.8046H36.0252V11.0523V11.8317H35.2458H34.4664V12.6111V13.3905V14.1699V14.9493H33.687H32.9077V15.7286V16.508H32.1283H31.3489V17.2874V18.0668H30.5695H29.7901V18.8462V19.6256H29.0107H28.2314V20.405V21.1843H27.452H26.6726V20.405V19.6256V18.8462V18.0668H25.8932H25.1138V18.8462V19.6256V20.405V21.1843H24.3344H23.555V21.9637V22.7431H22.7757H21.9963V23.5225V24.3019H21.2169H20.4375V25.0813V25.8607H21.2169H21.9963H22.7757H23.555V26.64V27.4194V28.1988V28.9782H24.3344H25.1138V29.7576V30.537H25.8932H26.6726V31.3163V32.0957H27.452H28.2314V32.8751V33.6545H29.0107H29.7901V34.4339V35.2133H30.5695H31.3489V35.9927V36.772H30.5695H29.7901V35.9927V35.2133H29.0107H28.2314V34.4339V33.6545H27.452H26.6726H25.8932H25.1138V32.8751V32.0957H24.3344H23.555V32.8751V33.6545V34.4339V35.2133H24.3344H25.1138V35.9927V36.772H25.8932H26.6726V37.5514V38.3308H27.452H28.2314H29.0107H29.7901H30.5695H31.3489H32.1283H32.9077H33.687H34.4664H35.2458H36.0252H36.8046H37.584H38.3634H39.1427V37.5514V36.772Z" fill="#9B9B9B"/>
<path d="M60.9654 36.7718H60.186H59.4066V35.9925V35.2131H58.6272H57.8478V34.4337V33.6543H57.0684H56.2891V34.4337V35.2131V35.9925V36.7718V37.5512V38.3306H57.0684H57.8478H58.6272H59.4066H60.186H60.9654V37.5512V36.7718Z" fill="#9B9B9B"/>
<path d="M26.6717 36.772H25.8923H25.1129V35.9926V35.2133H24.3335H23.5541V34.4339V33.6545V32.8751V32.0957V31.3163V30.5369H22.7748H21.9954H21.216H20.4366V31.3163V32.0957V32.8751V33.6545H21.216H21.9954V34.4339V35.2133H21.216H20.4366V34.4339V33.6545H19.6572H18.8778V32.8751V32.0957V31.3163V30.5369H18.0985H17.3191V29.7576V28.9782H16.5397H15.7603V28.1988V27.4194V26.64V25.8606V25.0813V24.3019H14.9809H14.2015V23.5225V22.7431V21.9637V21.1843H13.4221H12.6428V21.9637V22.7431H11.8634H11.084V23.5225V24.3019V25.0813V25.8606H11.8634H12.6428V26.64V27.4194V28.1988V28.9782V29.7576V30.5369H13.4221H14.2015V31.3163V32.0957V32.8751V33.6545H14.9809H15.7603V34.4339V35.2133H16.5397H17.3191V35.9926V36.772H18.0985H18.8778V37.5514V38.3308H19.6572H20.4366H21.216H21.9954H22.7748H23.5541H24.3335H25.1129H25.8923H26.6717V37.5514V36.772Z" fill="#EFF6FE"/>
<path d="M17.3185 27.4194V26.64V25.8606H16.5392H15.7598V26.64V27.4194V28.1988V28.9781H16.5392H17.3185V28.1988V27.4194Z" fill="#EFF6FE"/>
<path d="M21.9964 28.9782V28.1988V27.4194H21.2171H20.4377H19.6583H18.8789V28.1988V28.9782V29.7576V30.537V31.3164V32.0957V32.8751V33.6545H19.6583H20.4377V32.8751V32.0957V31.3164V30.537H21.2171H21.9964H22.7758H23.5552V29.7576V28.9782H22.7758H21.9964Z" fill="#EFF6FE"/>
<path d="M46.9357 27.4194V26.64V25.8606H46.1563H45.377V26.64V27.4194H46.1563H46.9357Z" fill="#EFF6FE"/>
<path d="M54.7289 24.3019V23.5225V22.7432H53.9495H53.1701H52.3907H51.6113V23.5225V24.3019V25.0813V25.8607H52.3907H53.1701V26.6401V27.4195H53.9495H54.7289V28.1989V28.9782V29.7576V30.537H55.5083H56.2876V31.3164V32.0958H57.067H57.8464V31.3164V30.537V29.7576V28.9782V28.1989V27.4195V26.6401V25.8607H57.067H56.2876V25.0813V24.3019H55.5083H54.7289Z" fill="#EFF6FE"/>
<path d="M57.8477 32.0957V32.8751V33.6545H58.627H59.4064V32.8751V32.0957H58.627H57.8477Z" fill="#EFF6FE"/>
<path d="M50.0529 25.8605V25.0811V24.3018H49.2735H48.4941V25.0811V25.8605V26.6399V27.4193H49.2735H50.0529V26.6399V25.8605Z" fill="#EFF6FE"/>
<path d="M42.2599 21.1845V20.4051V19.6257H41.4806H40.7012V20.4051V21.1845V21.9639V22.7433H41.4806H42.2599V21.9639V21.1845Z" fill="#EFF6FE"/>
<path d="M40.7012 7.15545V7.93483V8.71422V9.4936V10.273V11.0524V11.8318V12.6111V13.3905H41.4806H42.2599V14.1699V14.9493V15.7287V16.5081H43.0393H43.8187V17.2875V18.0668V18.8462V19.6256H44.5981H45.3775V20.405V21.1844H46.1569H46.9363V21.9638V22.7432V23.5225V24.3019H47.7156H48.495V23.5225V22.7432H49.2744H50.0538V21.9638V21.1844V20.405V19.6256H49.2744H48.495V18.8462V18.0668H47.7156H46.9363V17.2875V16.5081V15.7287V14.9493H46.1569H45.3775V14.1699V13.3905V12.6111V11.8318H44.5981H43.8187V11.0524V10.273V9.4936V8.71422V7.93483V7.15545V6.37606V5.59668H43.0393H42.2599H41.4806H40.7012V6.37606V7.15545Z" fill="#EFF6FE"/>
<path d="M53.171 36.7721H53.9504H54.7298V35.9927V35.2133H55.5091H56.2885V34.4339V33.6545V32.8751V32.0957H55.5091H54.7298V31.3164V30.537H53.9504H53.171V29.7576V28.9782V28.1988V27.4194H52.3916H51.6122H50.8328H50.0534V28.1988V28.9782V29.7576V30.537H50.8328H51.6122V31.3164V32.0957H52.3916H53.171V32.8751V33.6545H52.3916H51.6122H50.8328H50.0534V32.8751V32.0957H49.2741H48.4947V31.3164V30.537H47.7153H46.9359V29.7576V28.9782H46.1565H45.3771V28.1988V27.4194H44.5977H43.8184V28.1988V28.9782V29.7576V30.537V31.3164V32.0957H44.5977H45.3771V32.8751V33.6545V34.4339V35.2133H46.1565H46.9359V35.9927V36.7721H47.7153H48.4947V37.5514V38.3308H49.2741H50.0534H50.8328H51.6122H52.3916H53.171V37.5514V36.7721Z" fill="#EFF6FE"/>
<path d="M67.2004 36.7722H66.421H65.6416V37.5516V38.331H66.421H67.2004V37.5516V36.7722Z" fill="#EFF6FE"/>
<path d="M23.5547 30.5369V31.3163V32.0956H24.3341H25.1135V31.3163V30.5369H24.3341H23.5547Z" fill="#EFF6FE"/>
<path d="M25.1133 32.0957V32.8751V33.6545H25.8927H26.6721V32.8751V32.0957H25.8927H25.1133Z" fill="#EFF6FE"/>
<path d="M20.4375 35.2131H21.2169H21.9963V34.4337V33.6543H21.2169H20.4375V34.4337V35.2131Z" fill="#EFF6FE"/>
<path d="M15.7599 22.7432H14.9806H14.2012V23.5225V24.3019H14.9806H15.7599V23.5225V22.7432Z" fill="#EFF6FE"/>
<path d="M28.2314 16.5081V17.2875V18.0669V18.8463V19.6256H29.0108H29.7902V18.8463V18.0669H30.5696H31.349V17.2875V16.5081V15.7287V14.9493V14.1699V13.3906V12.6112V11.8318H30.5696H29.7902V12.6112V13.3906V14.1699V14.9493H29.0108H28.2314V15.7287V16.5081Z" fill="#EFF6FE"/>
<path d="M11.0842 27.4194V26.64V25.8606H10.3048H9.52539V26.64V27.4194H10.3048H11.0842Z" fill="#EFF6FE"/>
<path d="M26.6719 19.6255V20.4049V21.1843H27.4513H28.2306V20.4049V19.6255V18.8461V18.0668V17.2874V16.508V15.7286V14.9492H27.4513H26.6719V15.7286V16.508V17.2874V18.0668V18.8461V19.6255Z" fill="#EFF6FE"/>
<path d="M29.7902 14.9493V14.1699V13.3906V12.6112V11.8318H29.0108H28.2314V12.6112V13.3906V14.1699V14.9493H29.0108H29.7902Z" fill="#EFF6FE"/>
<path d="M31.3488 11.8317V11.0523V10.2729H30.5694H29.79V11.0523V11.8317H30.5694H31.3488Z" fill="#EFF6FE"/>
<path d="M14.2012 22.7433H14.9806H15.7599V23.5227V24.302V25.0814V25.8608H16.5393H17.3187V26.6402V27.4196V28.199V28.9784V29.7577V30.5371H18.0981H18.8775V29.7577V28.9784V28.199V27.4196H19.6569H20.4363H21.2156H21.995V26.6402V25.8608H21.2156H20.4363V25.0814V24.302H19.6569H18.8775V23.5227V22.7433H18.0981H17.3187V21.9639V21.1845H16.5393H15.7599V20.4051V19.6257H14.9806H14.2012V20.4051V21.1845V21.9639V22.7433Z" fill="#EFF6FE"/>
<path d="M31.3486 13.3906V14.1699V14.9493V15.7287V16.5081H32.128H32.9074V15.7287V14.9493H33.6868H34.4662V14.1699V13.3906H33.6868H32.9074V12.6112V11.8318H32.128H31.3486V12.6112V13.3906Z" fill="#EFF6FE"/>
<path d="M43.8185 22.7432H43.0392H42.2598V23.5225V24.3019H43.0392H43.8185V23.5225V22.7432Z" fill="#EFF6FE"/>
<path d="M45.3771 25.8605V25.0811V24.3018H44.5977H43.8184V25.0811V25.8605V26.6399V27.4193H44.5977H45.3771V26.6399V25.8605Z" fill="#EFF6FE"/>
<path d="M46.9357 27.4194H46.1563H45.377V28.1988V28.9782H46.1563H46.9357V28.1988V27.4194Z" fill="#EFF6FE"/>
<path d="M48.4943 28.9783H47.7149H46.9355V29.7577V30.537H47.7149H48.4943V29.7577V28.9783Z" fill="#EFF6FE"/>
<path d="M48.4941 30.5369V31.3163V32.0956H49.2735H50.0529V31.3163V30.5369H49.2735H48.4941Z" fill="#EFF6FE"/>
<path d="M50.0537 32.0957V32.8751V33.6545H50.8331H51.6125V32.8751V32.0957H50.8331H50.0537Z" fill="#EFF6FE"/>
<path d="M54.7306 28.9782V28.1988V27.4194H53.9513H53.1719V28.1988V28.9782H53.9513H54.7306Z" fill="#EFF6FE"/>
<path d="M57.8477 28.9782V29.7576V30.537V31.3164V32.0957H58.627H59.4064V31.3164V30.537V29.7576V28.9782V28.1988V27.4194H58.627H57.8477V28.1988V28.9782Z" fill="#EFF6FE"/>
<path d="M59.4062 33.6545H60.1856H60.965V32.8751V32.0957H60.1856H59.4062V32.8751V33.6545Z" fill="#EFF6FE"/>
<path d="M60.9658 35.2131H61.7452H62.5246V34.4337V33.6543H61.7452H60.9658V34.4337V35.2131Z" fill="#EFF6FE"/>
<path d="M62.5234 36.7719H63.3028H64.0822H64.8616H65.641V35.9925V35.2131H64.8616H64.0822H63.3028H62.5234V35.9925V36.7719Z" fill="#EFF6FE"/>
<path d="M71.0971 36.7722H70.3177H69.5384H68.759H67.9796H67.2002V37.5516V38.331H67.9796H68.759H69.5384H70.3177H71.0971H71.8765V37.5516V36.7722H71.0971Z" fill="#EFF6FE"/>
<path d="M45.377 13.3906V14.1699V14.9493H46.1563H46.9357V15.7287V16.5081V17.2875V18.0669H47.7151H48.4945V18.8463V19.6256H49.2739H50.0533V20.405V21.1844V21.9638V22.7432H49.2739H48.4945V23.5226V24.302H49.2739H50.0533V25.0813V25.8607V26.6401V27.4195H50.8326H51.612H52.3914H53.1708V26.6401V25.8607H52.3914H51.612V25.0813V24.302V23.5226V22.7432H52.3914H53.1708H53.9502H54.7296V23.5226V24.302H55.509H56.2883V23.5226V22.7432V21.9638V21.1844H55.509H54.7296V20.405V19.6256H53.9502H53.1708H52.3914H51.612V18.8463V18.0669H50.8326H50.0533V17.2875V16.5081H49.2739H48.4945V15.7287V14.9493V14.1699V13.3906H47.7151H46.9357V12.6112V11.8318H46.1563H45.377V12.6112V13.3906Z" fill="#EFF6FE"/>
<path d="M43.8184 8.71404V9.49343V10.2728V11.0522V11.8316H44.5977H45.3771V11.0522V10.2728V9.49343V8.71404V7.93466V7.15527H44.5977H43.8184V7.93466V8.71404Z" fill="#EFF6FE"/>
<path d="M9.52592 36.7718V35.9925V35.2131V34.4337V33.6543H8.74654H7.96715V34.4337V35.2131H7.18776H6.40838V35.9925V36.7718H5.62899H4.84961V37.5512V38.3306H5.62899H6.40838H7.18776H7.96715H8.74654H9.52592V37.5512V36.7718Z" fill="#EFF6FE"/>
<path d="M18.88 36.7764H18.1007H17.3213V35.997V35.2176H16.5419H15.7625V34.4382V33.6588H14.9831H14.2037V32.8795V32.1001V31.3207V30.5413H13.4244H12.645V29.7619V28.9825V28.2031V27.4238V26.6444V25.865H11.8656H11.0862V26.6444V27.4238H10.3068H9.52743V28.2031V28.9825H8.74804H7.96866V29.7619V30.5413H7.18927H6.40989H5.6305H4.85112V31.3207V32.1001H4.07173H3.29235V32.8795V33.6588H2.51296H1.73357V34.4382V35.2176V35.997V36.7764H0.95419H0.174805V37.5558V38.3352H0.95419H1.73357H2.51296H3.29235H4.07173H4.85112V37.5558V36.7764H5.6305H6.40989V35.997V35.2176H7.18927H7.96866V34.4382V33.6588H8.74804H9.52743V34.4382V35.2176V35.997V36.7764V37.5558V38.3352H10.3068H11.0862V37.5558V36.7764V35.997V35.2176H11.8656H12.645V35.997V36.7764H13.4244H14.2037V37.5558V38.3352H14.9831H15.7625H16.5419H17.3213H18.1007H18.88V37.5558V36.7764Z" fill="#9B9B9B"/>
<path d="M14.2035 36.7763H13.4241H12.6447V35.9969V35.2175H11.8653H11.0859V35.9969V36.7763V37.5557V38.3351H11.8653H12.6447H13.4241H14.2035V37.5557V36.7763Z" fill="#EFF6FE"/>
<path d="M23.5566 30.5412H24.336H25.1154V29.7618V28.9824H24.336H23.5566V29.7618V30.5412Z" fill="#EFF6FE"/>
<path d="M25.1152 32.0998H25.8946H26.674V31.3204V30.541H25.8946H25.1152V31.3204V32.0998Z" fill="#EFF6FE"/>
<path d="M50.0547 32.0998H50.8341H51.6135V31.3204V30.541H50.8341H50.0547V31.3204V32.0998Z" fill="#EFF6FE"/>
<path d="M51.6143 33.6586H52.3936H53.173V32.8792V32.0999H52.3936H51.6143V32.8792V33.6586Z" fill="#EFF6FE"/>
<path d="M54.7326 28.9824H53.9532H53.1738V29.7618V30.5412H53.9532H54.7326V29.7618V28.9824Z" fill="#EFF6FE"/>
<path d="M56.2912 30.541H55.5118H54.7324V31.3204V32.0998H55.5118H56.2912V31.3204V30.541Z" fill="#EFF6FE"/>
<path d="M56.2914 36.7763V35.9969V35.2175H55.512H54.7326V35.9969V36.7763H53.9532H53.1738V37.5557V38.3351H53.9532H54.7326H55.512H56.2914V37.5557V36.7763Z" fill="#EFF6FE"/>
<path d="M57.8498 32.0999H57.0704H56.291V32.8792V33.6586H57.0704H57.8498V32.8792V32.0999Z" fill="#EFF6FE"/>
<path d="M65.6435 36.7762H64.8641H64.0847H63.3053H62.5259V35.9968V35.2175H61.7465H60.9671V34.4381V33.6587H60.1878H59.4084H58.629H57.8496V34.4381V35.2175H58.629H59.4084V35.9968V36.7762H60.1878H60.9671V37.5556V38.335H61.7465H62.5259H63.3053H64.0847H64.8641H65.6435V37.5556V36.7762Z" fill="#EFF6FE"/>
<path d="M39.1437 10.2772V9.49782V8.71844V7.93905V7.15967H38.3643H37.585V7.93905V8.71844V9.49782V10.2772H38.3643H39.1437Z" fill="#9B9B9B"/>
<path d="M42.2619 5.60076V4.82138V4.04199H41.4825H40.7031V4.82138V5.60076H41.4825H42.2619Z" fill="#EFF6FE"/>
<path d="M48.4964 36.7762H47.717H46.9377V35.9969V35.2175H46.1583H45.3789V34.4381V33.6587V32.8793V32.0999H44.5995H43.8201V31.3205V30.5412V29.7618V28.9824V28.203V27.4236V26.6442V25.8648V25.0855V24.3061H43.0407H42.2614V23.5267V22.7473H41.482H40.7026V21.9679V21.1885V20.4091V19.6298H41.482H42.2614V20.4091V21.1885V21.9679V22.7473H43.0407H43.8201V23.5267V24.3061H44.5995H45.3789V25.0855V25.8648H46.1583H46.9377V26.6442V27.4236V28.203V28.9824H47.717H48.4964V29.7618V30.5412H49.2758H50.0552V29.7618V28.9824V28.203V27.4236H49.2758H48.4964V26.6442V25.8648V25.0855V24.3061H47.717H46.9377V23.5267V22.7473V21.9679V21.1885H46.1583H45.3789V20.4091V19.6298H44.5995H43.8201V18.8504V18.071V17.2916V16.5122H43.0407H42.2614V15.7328V14.9535V14.1741V13.3947H41.482H40.7026V12.6153V11.8359V11.0565V10.2771V9.49776V8.71837V7.93899V7.1596V6.38022V5.60083H39.9232H39.1438V6.38022V7.1596V7.93899V8.71837V9.49776V10.2771H38.3644H37.585V11.0565V11.8359V12.6153V13.3947H36.8057H36.0263V14.1741V14.9535V15.7328V16.5122H35.2469H34.4675V17.2916V18.071V18.8504V19.6298V20.4091V21.1885H33.6881H32.9087V21.9679V22.7473V23.5267V24.3061H32.1293H31.35V25.0855V25.8648H30.5706H29.7912V26.6442V27.4236H29.0118H28.2324V28.203V28.9824V29.7618V30.5412H29.0118H29.7912V29.7618V28.9824H30.5706H31.35H32.1293H32.9087V28.203V27.4236H33.6881H34.4675V26.6442V25.8648H35.2469H36.0263V26.6442V27.4236V28.203V28.9824H35.2469H34.4675V29.7618V30.5412V31.3205V32.0999H35.2469H36.0263V31.3205V30.5412H36.8057H37.585V29.7618V28.9824H38.3644H39.1438V28.203V27.4236H39.9232H40.7026V28.203V28.9824V29.7618V30.5412H39.9232H39.1438V31.3205V32.0999V32.8793V33.6587H38.3644H37.585V34.4381V35.2175V35.9969V36.7762H38.3644H39.1438V37.5556V38.335H39.9232H40.7026H41.482H42.2614H43.0407H43.8201H44.5995H45.3789H46.1583H46.9377H47.717H48.4964V37.5556V36.7762Z" fill="#EFF6FE"/>
<path d="M26.6738 33.6586H27.4532H28.2326V32.8792V32.0999H27.4532H26.6738V32.8792V33.6586Z" fill="#EFF6FE"/>
<path d="M28.2324 35.2175H29.0118H29.7912V34.4381V33.6587H29.0118H28.2324V34.4381V35.2175Z" fill="#EFF6FE"/>
<path d="M29.792 36.7763H30.5714H31.3508V35.9969V35.2175H30.5714H29.792V35.9969V36.7763Z" fill="#EFF6FE"/>
<path d="M21.998 27.4238V28.2031V28.9825H22.7774H23.5568V28.2031V27.4238V26.6444V25.865H22.7774H21.998V26.6444V27.4238Z" fill="#EFF6FE"/>
<path d="M39.1447 36.7762H38.3653H37.5859V35.9968V35.2174V34.438V33.6587H38.3653H39.1447V32.8793V32.0999V31.3205V30.5411H39.9241H40.7035V29.7617V28.9823V28.203V27.4236H39.9241H39.1447V28.203V28.9823H38.3653H37.5859V29.7617V30.5411H36.8065H36.0272V31.3205V32.0999H35.2478H34.4684V31.3205V30.5411V29.7617V28.9823H35.2478H36.0272V28.203V27.4236V26.6442V25.8648H35.2478H34.4684V26.6442V27.4236H33.689H32.9096V28.203V28.9823H32.1302H31.3508H30.5715H29.7921V29.7617V30.5411H29.0127H28.2333V29.7617V28.9823V28.203V27.4236H29.0127H29.7921V26.6442V25.8648H30.5715H31.3508V25.0854V24.306H32.1302H32.9096V23.5266V22.7473V21.9679V21.1885H33.689H34.4684V20.4091V19.6297V18.8503V18.071V17.2916V16.5122H35.2478H36.0272V15.7328V14.9534V14.174V13.3946H36.8065H37.5859V12.6153V11.8359V11.0565V10.2771H36.8065H36.0272V11.0565V11.8359H35.2478H34.4684V12.6153V13.3946V14.174V14.9534H33.689H32.9096V15.7328V16.5122H32.1302H31.3508V17.2916V18.071H30.5715H29.7921V18.8503V19.6297H29.0127H28.2333V20.4091V21.1885H27.4539H26.6745V20.4091V19.6297V18.8503V18.071H25.8951H25.1158V18.8503V19.6297V20.4091V21.1885H24.3364H23.557V21.9679V22.7473H22.7776H21.9982V23.5266V24.306H21.2188H20.4395V25.0854V25.8648H21.2188H21.9982H22.7776H23.557V26.6442V27.4236V28.203V28.9823H24.3364H25.1158V29.7617V30.5411H25.8951H26.6745V31.3205V32.0999H27.4539H28.2333V32.8793V33.6587H29.0127H29.7921V34.438V35.2174H30.5715H31.3508V35.9968V36.7762H30.5715H29.7921V35.9968V35.2174H29.0127H28.2333V34.438V33.6587H27.4539H26.6745H25.8951H25.1158V32.8793V32.0999H24.3364H23.557V32.8793V33.6587V34.438V35.2174H24.3364H25.1158V35.9968V36.7762H25.8951H26.6745V37.5556V38.335H27.4539H28.2333H29.0127H29.7921H30.5715H31.3508H32.1302H32.9096H33.689H34.4684H35.2478H36.0272H36.8065H37.5859H38.3653H39.1447V37.5556V36.7762Z" fill="#9B9B9B"/>
<path d="M60.9673 36.7762H60.1879H59.4086V35.9968V35.2175H58.6292H57.8498V34.4381V33.6587H57.0704H56.291V34.4381V35.2175V35.9968V36.7762V37.5556V38.335H57.0704H57.8498H58.6292H59.4086H60.1879H60.9673V37.5556V36.7762Z" fill="#9B9B9B"/>
<path d="M26.6736 36.7762H25.8943H25.1149V35.9968V35.2174H24.3355H23.5561V34.438V33.6586V32.8793V32.0999V31.3205V30.5411H22.7767H21.9973H21.2179H20.4386V31.3205V32.0999V32.8793V33.6586H21.2179H21.9973V34.438V35.2174H21.2179H20.4386V34.438V33.6586H19.6592H18.8798V32.8793V32.0999V31.3205V30.5411H18.1004H17.321V29.7617V28.9823H16.5416H15.7622V28.2029V27.4236V26.6442V25.8648V25.0854V24.306H14.9829H14.2035V23.5266V22.7472V21.9679V21.1885H13.4241H12.6447V21.9679V22.7472H11.8653H11.0859V23.5266V24.306V25.0854V25.8648H11.8653H12.6447V26.6442V27.4236V28.2029V28.9823V29.7617V30.5411H13.4241H14.2035V31.3205V32.0999V32.8793V33.6586H14.9829H15.7622V34.438V35.2174H16.5416H17.321V35.9968V36.7762H18.1004H18.8798V37.5556V38.3349H19.6592H20.4386H21.2179H21.9973H22.7767H23.5561H24.3355H25.1149H25.8943H26.6736V37.5556V36.7762Z" fill="#EFF6FE"/>
<path d="M17.3215 27.4238V26.6444V25.865H16.5421H15.7627V26.6444V27.4238V28.2031V28.9825H16.5421H17.3215V28.2031V27.4238Z" fill="#EFF6FE"/>
<path d="M21.9984 28.9824V28.203V27.4236H21.219H20.4396H19.6602H18.8809V28.203V28.9824V29.7617V30.5411V31.3205V32.0999V32.8793V33.6587H19.6602H20.4396V32.8793V32.0999V31.3205V30.5411H21.219H21.9984H22.7778H23.5572V29.7617V28.9824H22.7778H21.9984Z" fill="#EFF6FE"/>
<path d="M46.9377 27.4238V26.6444V25.865H46.1583H45.3789V26.6444V27.4238H46.1583H46.9377Z" fill="#EFF6FE"/>
<path d="M54.7318 24.3061V23.5267V22.7473H53.9524H53.173H52.3936H51.6143V23.5267V24.3061V25.0855V25.8649H52.3936H53.173V26.6442V27.4236H53.9524H54.7318V28.203V28.9824V29.7618V30.5412H55.5112H56.2906V31.3206V32.0999H57.07H57.8493V31.3206V30.5412V29.7618V28.9824V28.203V27.4236V26.6442V25.8649H57.07H56.2906V25.0855V24.3061H55.5112H54.7318Z" fill="#EFF6FE"/>
<path d="M57.8496 32.0999V32.8792V33.6586H58.629H59.4084V32.8792V32.0999H58.629H57.8496Z" fill="#EFF6FE"/>
<path d="M50.0549 25.8649V25.0855V24.3062H49.2755H48.4961V25.0855V25.8649V26.6443V27.4237H49.2755H50.0549V26.6443V25.8649Z" fill="#EFF6FE"/>
<path d="M42.2619 21.1884V20.409V19.6296H41.4825H40.7031V20.409V21.1884V21.9678V22.7472H41.4825H42.2619V21.9678V21.1884Z" fill="#EFF6FE"/>
<path d="M40.7031 7.1596V7.93899V8.71837V9.49776V10.2771V11.0565V11.8359V12.6153V13.3947H41.4825H42.2619V14.1741V14.9535V15.7328V16.5122H43.0413H43.8207V17.2916V18.071V18.8504V19.6298H44.6001H45.3794V20.4091V21.1885H46.1588H46.9382V21.9679V22.7473V23.5267V24.3061H47.7176H48.497V23.5267V22.7473H49.2764H50.0557V21.9679V21.1885V20.4091V19.6298H49.2764H48.497V18.8504V18.071H47.7176H46.9382V17.2916V16.5122V15.7328V14.9535H46.1588H45.3794V14.1741V13.3947V12.6153V11.8359H44.6001H43.8207V11.0565V10.2771V9.49776V8.71837V7.93899V7.1596V6.38022V5.60083H43.0413H42.2619H41.4825H40.7031V6.38022V7.1596Z" fill="#EFF6FE"/>
<path d="M53.1729 36.7762H53.9523H54.7317V35.9968V35.2174H55.5111H56.2905V34.4381V33.6587V32.8793V32.0999H55.5111H54.7317V31.3205V30.5411H53.9523H53.1729V29.7617V28.9824V28.203V27.4236H52.3935H51.6142H50.8348H50.0554V28.203V28.9824V29.7617V30.5411H50.8348H51.6142V31.3205V32.0999H52.3935H53.1729V32.8793V33.6587H52.3935H51.6142H50.8348H50.0554V32.8793V32.0999H49.276H48.4966V31.3205V30.5411H47.7172H46.9379V29.7617V28.9824H46.1585H45.3791V28.203V27.4236H44.5997H43.8203V28.203V28.9824V29.7617V30.5411V31.3205V32.0999H44.5997H45.3791V32.8793V33.6587V34.4381V35.2174H46.1585H46.9379V35.9968V36.7762H47.7172H48.4966V37.5556V38.335H49.276H50.0554H50.8348H51.6142H52.3935H53.1729V37.5556V36.7762Z" fill="#EFF6FE"/>
<path d="M67.2023 36.7761H66.4229H65.6436V37.5555V38.3349H66.4229H67.2023V37.5555V36.7761Z" fill="#EFF6FE"/>
<path d="M23.5566 30.541V31.3204V32.0998H24.336H25.1154V31.3204V30.541H24.336H23.5566Z" fill="#EFF6FE"/>
<path d="M25.1152 32.0999V32.8792V33.6586H25.8946H26.674V32.8792V32.0999H25.8946H25.1152Z" fill="#EFF6FE"/>
<path d="M20.4395 35.2175H21.2188H21.9982V34.4381V33.6587H21.2188H20.4395V34.4381V35.2175Z" fill="#EFF6FE"/>
<path d="M15.7619 22.7473H14.9825H14.2031V23.5267V24.3061H14.9825H15.7619V23.5267V22.7473Z" fill="#EFF6FE"/>
<path d="M28.2324 16.5122V17.2916V18.071V18.8504V19.6298H29.0118H29.7912V18.8504V18.071H30.5706H31.35V17.2916V16.5122V15.7329V14.9535V14.1741V13.3947V12.6153V11.8359H30.5706H29.7912V12.6153V13.3947V14.1741V14.9535H29.0118H28.2324V15.7329V16.5122Z" fill="#EFF6FE"/>
<path d="M11.0861 27.4238V26.6444V25.865H10.3067H9.52734V26.6444V27.4238H10.3067H11.0861Z" fill="#EFF6FE"/>
<path d="M26.6738 19.6297V20.4091V21.1884H27.4532H28.2326V20.4091V19.6297V18.8503V18.0709V17.2915V16.5121V15.7328V14.9534H27.4532H26.6738V15.7328V16.5121V17.2915V18.0709V18.8503V19.6297Z" fill="#EFF6FE"/>
<path d="M29.7912 14.9535V14.1741V13.3947V12.6153V11.8359H29.0118H28.2324V12.6153V13.3947V14.1741V14.9535H29.0118H29.7912Z" fill="#EFF6FE"/>
<path d="M31.3508 11.8359V11.0565V10.2771H30.5714H29.792V11.0565V11.8359H30.5714H31.3508Z" fill="#EFF6FE"/>
<path d="M14.2031 22.7472H14.9825H15.7619V23.5266V24.3059V25.0853V25.8647H16.5413H17.3207V26.6441V27.4235V28.2029V28.9823V29.7616V30.541H18.1001H18.8794V29.7616V28.9823V28.2029V27.4235H19.6588H20.4382H21.2176H21.997V26.6441V25.8647H21.2176H20.4382V25.0853V24.3059H19.6588H18.8794V23.5266V22.7472H18.1001H17.3207V21.9678V21.1884H16.5413H15.7619V20.409V19.6296H14.9825H14.2031V20.409V21.1884V21.9678V22.7472Z" fill="#EFF6FE"/>
<path d="M31.3506 13.3947V14.1741V14.9535V15.7329V16.5122H32.13H32.9094V15.7329V14.9535H33.6887H34.4681V14.1741V13.3947H33.6887H32.9094V12.6153V11.8359H32.13H31.3506V12.6153V13.3947Z" fill="#EFF6FE"/>
<path d="M43.8205 22.7473H43.0411H42.2617V23.5267V24.3061H43.0411H43.8205V23.5267V22.7473Z" fill="#EFF6FE"/>
<path d="M45.3791 25.8649V25.0855V24.3062H44.5997H43.8203V25.0855V25.8649V26.6443V27.4237H44.5997H45.3791V26.6443V25.8649Z" fill="#EFF6FE"/>
<path d="M46.9377 27.4236H46.1583H45.3789V28.203V28.9824H46.1583H46.9377V28.203V27.4236Z" fill="#EFF6FE"/>
<path d="M48.4963 28.9824H47.7169H46.9375V29.7618V30.5412H47.7169H48.4963V29.7618V28.9824Z" fill="#EFF6FE"/>
<path d="M48.4961 30.541V31.3204V32.0998H49.2755H50.0549V31.3204V30.541H49.2755H48.4961Z" fill="#EFF6FE"/>
<path d="M50.0547 32.0999V32.8792V33.6586H50.8341H51.6135V32.8792V32.0999H50.8341H50.0547Z" fill="#EFF6FE"/>
<path d="M54.7326 28.9824V28.203V27.4236H53.9532H53.1738V28.203V28.9824H53.9532H54.7326Z" fill="#EFF6FE"/>
<path d="M57.8496 28.9824V29.7617V30.5411V31.3205V32.0999H58.629H59.4084V31.3205V30.5411V29.7617V28.9824V28.203V27.4236H58.629H57.8496V28.203V28.9824Z" fill="#EFF6FE"/>
<path d="M59.4082 33.6586H60.1876H60.967V32.8792V32.0999H60.1876H59.4082V32.8792V33.6586Z" fill="#EFF6FE"/>
<path d="M60.9668 35.2175H61.7462H62.5256V34.4381V33.6587H61.7462H60.9668V34.4381V35.2175Z" fill="#EFF6FE"/>
<path d="M62.5264 36.7763H63.3058H64.0851H64.8645H65.6439V35.9969V35.2175H64.8645H64.0851H63.3058H62.5264V35.9969V36.7763Z" fill="#EFF6FE"/>
<path d="M71.0991 36.7761H70.3197H69.5403H68.7609H67.9815H67.2021V37.5555V38.3349H67.9815H68.7609H69.5403H70.3197H71.0991H71.8785V37.5555V36.7761H71.0991Z" fill="#EFF6FE"/>
<path d="M45.3789 13.3947V14.1741V14.9535H46.1583H46.9377V15.7329V16.5122V17.2916V18.071H47.7171H48.4964V18.8504V19.6298H49.2758H50.0552V20.4092V21.1886V21.9679V22.7473H49.2758H48.4964V23.5267V24.3061H49.2758H50.0552V25.0855V25.8649V26.6443V27.4236H50.8346H51.614H52.3934H53.1728V26.6443V25.8649H52.3934H51.614V25.0855V24.3061V23.5267V22.7473H52.3934H53.1728H53.9521H54.7315V23.5267V24.3061H55.5109H56.2903V23.5267V22.7473V21.9679V21.1886H55.5109H54.7315V20.4092V19.6298H53.9521H53.1728H52.3934H51.614V18.8504V18.071H50.8346H50.0552V17.2916V16.5122H49.2758H48.4964V15.7329V14.9535V14.1741V13.3947H47.7171H46.9377V12.6153V11.8359H46.1583H45.3789V12.6153V13.3947Z" fill="#EFF6FE"/>
<path d="M43.8203 8.71844V9.49782V10.2772V11.0566V11.836H44.5997H45.3791V11.0566V10.2772V9.49782V8.71844V7.93905V7.15967H44.5997H43.8203V7.93905V8.71844Z" fill="#EFF6FE"/>
<path d="M9.52787 36.7762V35.9968V35.2175V34.4381V33.6587H8.74849H7.9691V34.4381V35.2175H7.18972H6.41033V35.9968V36.7762H5.63095H4.85156V37.5556V38.335H5.63095H6.41033H7.18972H7.9691H8.74849H9.52787V37.5556V36.7762Z" fill="#EFF6FE"/>
</svg>
