<svg width="201" height="39" viewBox="0 0 201 39" fill="none" xmlns="http://www.w3.org/2000/svg">
<g clip-path="url(#clip0_308_299)">
<path d="M158.5 23.0663C157.578 21.5211 155.461 20.4565 152.797 20.4565C147.948 20.4565 144.396 23.7875 144.396 29.7283C144.396 35.4287 147.709 39.0001 152.797 39.0001C155.529 39.0001 157.646 37.7639 158.534 36.2185L158.842 38.6567H163.281V13.9932H158.5V23.0663ZM153.89 34.7076C151.226 34.7076 149.314 32.8532 149.314 29.7283C149.314 26.6721 151.226 24.749 153.89 24.749C156.451 24.749 158.398 26.6377 158.398 29.7283C158.398 32.8532 156.451 34.7076 153.89 34.7076Z" fill="#EFF6FE"/>
<path d="M182.007 34.4636C181.698 34.4461 180.91 34.286 180.81 33.1283V27.2829C180.81 21.9474 176.735 20.1689 172.799 20.1689C168.277 20.1689 165.027 22.4267 164.741 26.1813H169.22C169.541 24.8815 170.808 24.0397 172.59 24.0397C174.61 24.0397 175.899 25.1557 175.899 27.1782V27.531H171.973C168.069 27.531 166.299 29.1567 166.299 29.1567L166.369 29.1468C164.948 30.1042 164.266 31.5969 164.266 33.4203C164.266 36.9076 166.843 39 170.849 39C173.531 39 175.62 38.0584 176.631 36.524C177.014 38.0932 178.337 38.6512 179.939 38.6512H181.867V38.6558H182.64V34.4636H182.007ZM175.899 31.8162C175.899 33.9783 174.506 35.164 172.103 35.164C170.5 35.164 169.281 34.606 169.281 33.1065C169.281 32.1301 169.839 31.1537 171.928 31.1537H175.899V31.8162Z" fill="#EFF6FE"/>
<path d="M191.52 20.4221C197.062 20.4221 201 24.1995 201 29.7282C201 35.2913 197.062 39.0001 191.52 39.0001C185.978 39.0001 182.04 35.2913 182.04 29.7282C182.04 24.1995 185.978 20.4221 191.52 20.4221ZM191.52 34.9136C194.239 34.9136 196.016 32.8532 196.016 29.694C196.016 26.5003 194.239 24.5086 191.52 24.5086C188.802 24.5086 187.024 26.5003 187.024 29.694C187.024 32.8532 188.802 34.9136 191.52 34.9136Z" fill="#EFF6FE"/>
<path d="M143.107 22.4816V38.6248H135.717V23.9966C135.717 19.5037 133.568 17.205 130.004 17.205C126.125 17.205 124.029 19.8694 124.029 24.2578V38.6248H116.69V11.4582C118.859 11.4579 121.027 11.4576 123.196 11.4573C123.438 12.5373 123.681 13.6173 123.924 14.6973C125.339 12.4509 128.064 10.9358 132.153 10.9358C139.124 10.9358 143.107 15.5333 143.107 22.4816Z" fill="#EFF6FE"/>
<path d="M114.993 32.454C114.957 32.4558 114.922 32.4594 114.886 32.4594H110.744C109.574 32.4594 108.626 31.5058 108.626 30.3295V29.6123C108.608 29.3812 108.6 29.1332 108.6 28.8654V17.7183H114.837V11.4572H108.558V3.89062H101.278V11.4572H96.7949V17.7149H97.0683V17.7183H101.261V30.503C101.261 35.469 103.882 38.6388 109.281 38.6388C111.205 38.6376 113.128 38.6365 115.052 38.6353C115.032 36.5749 115.012 34.5144 114.993 32.454Z" fill="#EFF6FE"/>
<path d="M87.004 10.7044C86.5532 10.6579 86.0984 10.6393 85.6422 10.6498C82.2979 10.6985 79.1292 12.1772 77.5315 15.3385C76.9756 14.2728 76.2576 13.3994 75.4135 12.7063C74.6797 12.0916 73.8659 11.6431 73.0075 11.3263C71.7998 10.8694 70.4596 10.6475 69.0403 10.6475C68.6029 10.6475 68.1798 10.6704 67.7709 10.7141C67.7366 10.7166 67.702 10.7184 67.6678 10.7211C66.8803 10.7813 66.1659 10.9674 65.5272 11.2222C64.3898 11.638 63.4323 12.2731 62.6889 13.106C62.2684 13.5196 61.9939 13.8674 61.8769 14.0245L61.7943 13.7293L61.1258 11.1746H61.0798L61.0788 11.171H54.3105V11.7148L54.3118 11.7166V38.5826H61.6499V23.2447C61.6499 19.1862 63.7465 17.236 66.8389 17.236C69.7742 17.236 71.7659 19.0808 71.7659 23.561V38.5826H78.8419V23.4029C78.9467 19.1335 81.1481 17.236 84.031 17.236C87.0186 17.236 88.9579 19.0808 88.9579 23.192V38.6354H96.3484V21.7162C96.3484 14.6826 91.9822 11.1802 87.004 10.7044Z" fill="#EFF6FE"/>
<path d="M27.7199 26.9765C35.1279 26.9765 41.1332 20.9376 41.1332 13.4883C41.1332 6.0389 35.1279 0 27.7199 0C20.312 0 14.3066 6.0389 14.3066 13.4883C14.3066 20.9376 20.312 26.9765 27.7199 26.9765Z" fill="#EFF6FE"/>
<path d="M27.7037 23.2617C33.0624 23.2617 37.4064 18.8934 37.4064 13.5048C37.4064 8.11614 33.0624 3.7478 27.7037 3.7478C22.345 3.7478 18.001 8.11614 18.001 13.5048C18.001 18.8934 22.345 23.2617 27.7037 23.2617Z" fill="#9B9B9B"/>
<path d="M18.7214 37.0097H17.9413H17.1613V36.2253V35.4408H16.3812H15.6012V34.6564V33.872H14.8211H14.041V33.0876V32.3032V31.5188V30.7343H13.261H12.4809V29.9499V29.1655V28.3811V27.5967V26.8122V26.0278H11.7009H10.9208V26.8122V27.5967H10.1408H9.36069V28.3811V29.1655H8.58064H7.80058V29.9499V30.7343H7.02052H6.24046H5.4604H4.68035V31.5188V32.3032H3.90029H3.12023V33.0876V33.872H2.34017H1.56012V34.6564V35.4408V36.2253V37.0097H0.780058H0V37.7941V38.5785H0.780058H1.56012H2.34017H3.12023H3.90029H4.68035V37.7941V37.0097H5.4604H6.24046V36.2253V35.4408H7.02052H7.80058V34.6564V33.872H8.58064H9.36069V34.6564V35.4408V36.2253V37.0097V37.7941V38.5785H10.1408H10.9208V37.7941V37.0097V36.2253V35.4408H11.7009H12.4809V36.2253V37.0097H13.261H14.041V37.7941V38.5785H14.8211H15.6012H16.3812H17.1613H17.9413H18.7214V37.7941V37.0097Z" fill="#9B9B9B"/>
<path d="M14.0411 37.0093H13.2611H12.481V36.2248V35.4404H11.701H10.9209V36.2248V37.0093V37.7937V38.5781H11.701H12.481H13.2611H14.0411V37.7937V37.0093Z" fill="#EFF6FE"/>
<path d="M23.4023 30.7344H24.1824H24.9625V29.9499V29.1655H24.1824H23.4023V29.9499V30.7344Z" fill="#EFF6FE"/>
<path d="M24.9619 32.303H25.742H26.522V31.5185V30.7341H25.742H24.9619V31.5185V32.303Z" fill="#EFF6FE"/>
<path d="M49.9238 32.303H50.7039H51.4839V31.5185V30.7341H50.7039H49.9238V31.5185V32.303Z" fill="#EFF6FE"/>
<path d="M51.4824 33.8718H52.2625H53.0425V33.0874V32.303H52.2625H51.4824V33.0874V33.8718Z" fill="#EFF6FE"/>
<path d="M54.605 29.1655H53.825H53.0449V29.9499V30.7344H53.825H54.605V29.9499V29.1655Z" fill="#EFF6FE"/>
<path d="M56.1646 30.7341H55.3845H54.6045V31.5185V32.303H55.3845H56.1646V31.5185V30.7341Z" fill="#EFF6FE"/>
<path d="M56.1652 37.0093V36.2248V35.4404H55.3851H54.605V36.2248V37.0093H53.825H53.0449V37.7937V38.5781H53.825H54.605H55.3851H56.1652V37.7937V37.0093Z" fill="#EFF6FE"/>
<path d="M57.7252 32.303H56.9451H56.165V33.0874V33.8718H56.9451H57.7252V33.0874V32.303Z" fill="#EFF6FE"/>
<path d="M65.5252 37.0093H64.7451H63.9651H63.185H62.405V36.2248V35.4404H61.6249H60.8448V34.656V33.8716H60.0648H59.2847H58.5047H57.7246V34.656V35.4404H58.5047H59.2847V36.2248V37.0093H60.0648H60.8448V37.7937V38.5781H61.6249H62.405H63.185H63.9651H64.7451H65.5252V37.7937V37.0093Z" fill="#EFF6FE"/>
<path d="M39.0025 10.3393V9.55491V8.7705V7.98608V7.20166H38.2224H37.4424V7.98608V8.7705V9.55491V10.3393H38.2224H39.0025Z" fill="#9B9B9B"/>
<path d="M42.1236 5.6328V4.84838V4.06396H41.3435H40.5635V4.84838V5.6328H41.3435H42.1236Z" fill="#EFF6FE"/>
<path d="M48.3645 37.0095H47.5845H46.8044V36.2251V35.4407H46.0243H45.2443V34.6563V33.8718V33.0874V32.303H44.4642H43.6842V31.5186V30.7342V29.9498V29.1653V28.3809V27.5965V26.8121V26.0277V25.2433V24.4588H42.9041H42.124V23.6744V22.89H41.344H40.5639V22.1056V21.3212V20.5367V19.7523H41.344H42.124V20.5367V21.3212V22.1056V22.89H42.9041H43.6842V23.6744V24.4588H44.4642H45.2443V25.2433V26.0277H46.0243H46.8044V26.8121V27.5965V28.3809V29.1653H47.5845H48.3645V29.9498V30.7342H49.1446H49.9246V29.9498V29.1653V28.3809V27.5965H49.1446H48.3645V26.8121V26.0277V25.2433V24.4588H47.5845H46.8044V23.6744V22.89V22.1056V21.3212H46.0243H45.2443V20.5367V19.7523H44.4642H43.6842V18.9679V18.1835V17.3991V16.6147H42.9041H42.124V15.8302V15.0458V14.2614V13.477H41.344H40.5639V12.6926V11.9082V11.1237V10.3393V9.5549V8.77048V7.98607V7.20165V6.41723V5.63281H39.7839H39.0038V6.41723V7.20165V7.98607V8.77048V9.5549V10.3393H38.2238H37.4437V11.1237V11.9082V12.6926V13.477H36.6636H35.8836V14.2614V15.0458V15.8302V16.6147H35.1035H34.3235V17.3991V18.1835V18.9679V19.7523V20.5367V21.3212H33.5434H32.7634V22.1056V22.89V23.6744V24.4588H31.9833H31.2032V25.2433V26.0277H30.4232H29.6431V26.8121V27.5965H28.8631H28.083V28.3809V29.1653V29.9498V30.7342H28.8631H29.6431V29.9498V29.1653H30.4232H31.2032H31.9833H32.7634V28.3809V27.5965H33.5434H34.3235V26.8121V26.0277H35.1035H35.8836V26.8121V27.5965V28.3809V29.1653H35.1035H34.3235V29.9498V30.7342V31.5186V32.303H35.1035H35.8836V31.5186V30.7342H36.6636H37.4437V29.9498V29.1653H38.2238H39.0038V28.3809V27.5965H39.7839H40.5639V28.3809V29.1653V29.9498V30.7342H39.7839H39.0038V31.5186V32.303V33.0874V33.8718H38.2238H37.4437V34.6563V35.4407V36.2251V37.0095H38.2238H39.0038V37.7939V38.5783H39.7839H40.5639H41.344H42.124H42.9041H43.6842H44.4642H45.2443H46.0243H46.8044H47.5845H48.3645V37.7939V37.0095Z" fill="#EFF6FE"/>
<path d="M26.5215 33.8718H27.3015H28.0816V33.0874V32.303H27.3015H26.5215V33.0874V33.8718Z" fill="#EFF6FE"/>
<path d="M28.083 35.4407H28.8631H29.6431V34.6562V33.8718H28.8631H28.083V34.6562V35.4407Z" fill="#EFF6FE"/>
<path d="M29.6426 37.0095H30.4226H31.2027V36.2251V35.4407H30.4226H29.6426V36.2251V37.0095Z" fill="#EFF6FE"/>
<path d="M21.8418 27.5964V28.3808V29.1653H22.6219H23.4019V28.3808V27.5964V26.812V26.0276H22.6219H21.8418V26.812V27.5964Z" fill="#EFF6FE"/>
<path d="M39.0036 37.0096H38.2236H37.4435V36.2251V35.4407V34.6563V33.8719H38.2236H39.0036V33.0875V32.303V31.5186V30.7342H39.7837H40.5637V29.9498V29.1654V28.381V27.5965H39.7837H39.0036V28.381V29.1654H38.2236H37.4435V29.9498V30.7342H36.6634H35.8834V31.5186V32.303H35.1033H34.3233V31.5186V30.7342V29.9498V29.1654H35.1033H35.8834V28.381V27.5965V26.8121V26.0277H35.1033H34.3233V26.8121V27.5965H33.5432H32.7632V28.381V29.1654H31.9831H31.203H30.423H29.6429V29.9498V30.7342H28.8629H28.0828V29.9498V29.1654V28.381V27.5965H28.8629H29.6429V26.8121V26.0277H30.423H31.203V25.2433V24.4589H31.9831H32.7632V23.6745V22.89V22.1056V21.3212H33.5432H34.3233V20.5368V19.7524V18.9679V18.1835V17.3991V16.6147H35.1033H35.8834V15.8303V15.0459V14.2614V13.477H36.6634H37.4435V12.6926V11.9082V11.1238V10.3394H36.6634H35.8834V11.1238V11.9082H35.1033H34.3233V12.6926V13.477V14.2614V15.0459H33.5432H32.7632V15.8303V16.6147H31.9831H31.203V17.3991V18.1835H30.423H29.6429V18.9679V19.7524H28.8629H28.0828V20.5368V21.3212H27.3027H26.5227V20.5368V19.7524V18.9679V18.1835H25.7426H24.9626V18.9679V19.7524V20.5368V21.3212H24.1825H23.4025V22.1056V22.89H22.6224H21.8423V23.6745V24.4589H21.0623H20.2822V25.2433V26.0277H21.0623H21.8423H22.6224H23.4025V26.8121V27.5965V28.381V29.1654H24.1825H24.9626V29.9498V30.7342H25.7426H26.5227V31.5186V32.303H27.3027H28.0828V33.0875V33.8719H28.8629H29.6429V34.6563V35.4407H30.423H31.203V36.2251V37.0096H30.423H29.6429V36.2251V35.4407H28.8629H28.0828V34.6563V33.8719H27.3027H26.5227H25.7426H24.9626V33.0875V32.303H24.1825H23.4025V33.0875V33.8719V34.6563V35.4407H24.1825H24.9626V36.2251V37.0096H25.7426H26.5227V37.794V38.5784H27.3027H28.0828H28.8629H29.6429H30.423H31.203H31.9831H32.7632H33.5432H34.3233H35.1033H35.8834H36.6634H37.4435H38.2236H39.0036V37.794V37.0096Z" fill="#9B9B9B"/>
<path d="M60.8454 37.0093H60.0653H59.2853V36.2248V35.4404H58.5052H57.7252V34.656V33.8716H56.9451H56.165V34.656V35.4404V36.2248V37.0093V37.7937V38.5781H56.9451H57.7252H58.5052H59.2853H60.0653H60.8454V37.7937V37.0093Z" fill="#9B9B9B"/>
<path d="M26.5221 37.0094H25.742H24.9619V36.225V35.4406H24.1819H23.4018V34.6561V33.8717V33.0873V32.3029V31.5185V30.7341H22.6218H21.8417H21.0617H20.2816V31.5185V32.3029V33.0873V33.8717H21.0617H21.8417V34.6561V35.4406H21.0617H20.2816V34.6561V33.8717H19.5015H18.7215V33.0873V32.3029V31.5185V30.7341H17.9414H17.1614V29.9496V29.1652H16.3813H15.6012V28.3808V27.5964V26.812V26.0275V25.2431V24.4587H14.8212H14.0411V23.6743V22.8899V22.1055V21.321H13.2611H12.481V22.1055V22.8899H11.701H10.9209V23.6743V24.4587V25.2431V26.0275H11.701H12.481V26.812V27.5964V28.3808V29.1652V29.9496V30.7341H13.2611H14.0411V31.5185V32.3029V33.0873V33.8717H14.8212H15.6012V34.6561V35.4406H16.3813H17.1614V36.225V37.0094H17.9414H18.7215V37.7938V38.5782H19.5015H20.2816H21.0617H21.8417H22.6218H23.4018H24.1819H24.9619H25.742H26.5221V37.7938V37.0094Z" fill="#EFF6FE"/>
<path d="M17.1607 27.5964V26.812V26.0276H16.3806H15.6006V26.812V27.5964V28.3808V29.1653H16.3806H17.1607V28.3808V27.5964Z" fill="#EFF6FE"/>
<path d="M21.8429 29.1653V28.3809V27.5964H21.0628H20.2828H19.5027H18.7227V28.3809V29.1653V29.9497V30.7341V31.5185V32.3029V33.0874V33.8718H19.5027H20.2828V33.0874V32.3029V31.5185V30.7341H21.0628H21.8429H22.6229H23.403V29.9497V29.1653H22.6229H21.8429Z" fill="#EFF6FE"/>
<path d="M46.8033 27.5964V26.812V26.0276H46.0232H45.2432V26.812V27.5964H46.0232H46.8033Z" fill="#EFF6FE"/>
<path d="M54.6027 24.459V23.6746V22.8901H53.8226H53.0425H52.2625H51.4824V23.6746V24.459V25.2434V26.0278H52.2625H53.0425V26.8122V27.5966H53.8226H54.6027V28.3811V29.1655V29.9499V30.7343H55.3827H56.1628V31.5187V32.3031H56.9428H57.7229V31.5187V30.7343V29.9499V29.1655V28.3811V27.5966V26.8122V26.0278H56.9428H56.1628V25.2434V24.459H55.3827H54.6027Z" fill="#EFF6FE"/>
<path d="M57.7246 32.303V33.0874V33.8718H58.5047H59.2847V33.0874V32.303H58.5047H57.7246Z" fill="#EFF6FE"/>
<path d="M49.9234 26.0276V25.2432V24.4587H49.1433H48.3633V25.2432V26.0276V26.812V27.5964H49.1433H49.9234V26.812V26.0276Z" fill="#EFF6FE"/>
<path d="M42.1236 21.3213V20.5369V19.7524H41.3435H40.5635V20.5369V21.3213V22.1057V22.8901H41.3435H42.1236V22.1057V21.3213Z" fill="#EFF6FE"/>
<path d="M40.5635 7.20165V7.98606V8.77048V9.5549V10.3393V11.1237V11.9082V12.6926V13.477H41.3435H42.1236V14.2614V15.0458V15.8302V16.6147H42.9037H43.6837V17.3991V18.1835V18.9679V19.7523H44.4638H45.2438V20.5367V21.3212H46.0239H46.8039V22.1056V22.89V23.6744V24.4588H47.584H48.3641V23.6744V22.89H49.1441H49.9242V22.1056V21.3212V20.5367V19.7523H49.1441H48.3641V18.9679V18.1835H47.584H46.8039V17.3991V16.6147V15.8302V15.0458H46.0239H45.2438V14.2614V13.477V12.6926V11.9082H44.4638H43.6837V11.1237V10.3393V9.5549V8.77048V7.98606V7.20165V6.41723V5.63281H42.9037H42.1236H41.3435H40.5635V6.41723V7.20165Z" fill="#EFF6FE"/>
<path d="M53.0443 37.0094H53.8243H54.6044V36.225V35.4406H55.3845H56.1645V34.6562V33.8718V33.0874V32.3029H55.3845H54.6044V31.5185V30.7341H53.8243H53.0443V29.9497V29.1653V28.3809V27.5964H52.2642H51.4842H50.7041H49.9241V28.3809V29.1653V29.9497V30.7341H50.7041H51.4842V31.5185V32.3029H52.2642H53.0443V33.0874V33.8718H52.2642H51.4842H50.7041H49.9241V33.0874V32.3029H49.144H48.3639V31.5185V30.7341H47.5839H46.8038V29.9497V29.1653H46.0238H45.2437V28.3809V27.5964H44.4637H43.6836V28.3809V29.1653V29.9497V30.7341V31.5185V32.3029H44.4637H45.2437V33.0874V33.8718V34.6562V35.4406H46.0238H46.8038V36.225V37.0094H47.5839H48.3639V37.7939V38.5783H49.144H49.9241H50.7041H51.4842H52.2642H53.0443V37.7939V37.0094Z" fill="#EFF6FE"/>
<path d="M67.0855 37.0095H66.3054H65.5254V37.7939V38.5784H66.3054H67.0855V37.7939V37.0095Z" fill="#EFF6FE"/>
<path d="M23.4023 30.7341V31.5185V32.303H24.1824H24.9625V31.5185V30.7341H24.1824H23.4023Z" fill="#EFF6FE"/>
<path d="M24.9619 32.303V33.0874V33.8718H25.742H26.522V33.0874V32.303H25.742H24.9619Z" fill="#EFF6FE"/>
<path d="M20.2822 35.4404H21.0623H21.8423V34.656V33.8716H21.0623H20.2822V34.656V35.4404Z" fill="#EFF6FE"/>
<path d="M15.6002 22.8901H14.8201H14.04V23.6746V24.459H14.8201H15.6002V23.6746V22.8901Z" fill="#EFF6FE"/>
<path d="M28.083 16.6147V17.3991V18.1835V18.968V19.7524H28.8631H29.6431V18.968V18.1835H30.4232H31.2032V17.3991V16.6147V15.8303V15.0459V14.2615V13.477V12.6926V11.9082H30.4232H29.6431V12.6926V13.477V14.2615V15.0459H28.8631H28.083V15.8303V16.6147Z" fill="#EFF6FE"/>
<path d="M10.9205 27.5964V26.812V26.0276H10.1404H9.36035V26.812V27.5964H10.1404H10.9205Z" fill="#EFF6FE"/>
<path d="M26.5215 19.7524V20.5368V21.3212H27.3015H28.0816V20.5368V19.7524V18.968V18.1836V17.3992V16.6147V15.8303V15.0459H27.3015H26.5215V15.8303V16.6147V17.3992V18.1836V18.968V19.7524Z" fill="#EFF6FE"/>
<path d="M29.6431 15.0459V14.2615V13.477V12.6926V11.9082H28.8631H28.083V12.6926V13.477V14.2615V15.0459H28.8631H29.6431Z" fill="#EFF6FE"/>
<path d="M31.2027 11.9082V11.1238V10.3394H30.4226H29.6426V11.1238V11.9082H30.4226H31.2027Z" fill="#EFF6FE"/>
<path d="M14.04 22.8901H14.8201H15.6002V23.6745V24.4589V25.2434V26.0278H16.3802H17.1603V26.8122V27.5966V28.381V29.1655V29.9499V30.7343H17.9403H18.7204V29.9499V29.1655V28.381V27.5966H19.5004H20.2805H21.0606H21.8406V26.8122V26.0278H21.0606H20.2805V25.2434V24.4589H19.5004H18.7204V23.6745V22.8901H17.9403H17.1603V22.1057V21.3213H16.3802H15.6002V20.5369V19.7524H14.8201H14.04V20.5369V21.3213V22.1057V22.8901Z" fill="#EFF6FE"/>
<path d="M31.2021 13.477V14.2615V15.0459V15.8303V16.6147H31.9822H32.7623V15.8303V15.0459H33.5423H34.3224V14.2615V13.477H33.5423H32.7623V12.6926V11.9082H31.9822H31.2021V12.6926V13.477Z" fill="#EFF6FE"/>
<path d="M43.6832 22.8901H42.9031H42.123V23.6746V24.459H42.9031H43.6832V23.6746V22.8901Z" fill="#EFF6FE"/>
<path d="M45.2437 26.0276V25.2432V24.4587H44.4637H43.6836V25.2432V26.0276V26.812V27.5964H44.4637H45.2437V26.812V26.0276Z" fill="#EFF6FE"/>
<path d="M46.8033 27.5964H46.0232H45.2432V28.3809V29.1653H46.0232H46.8033V28.3809V27.5964Z" fill="#EFF6FE"/>
<path d="M48.3628 29.1655H47.5828H46.8027V29.9499V30.7344H47.5828H48.3628V29.9499V29.1655Z" fill="#EFF6FE"/>
<path d="M48.3633 30.7341V31.5185V32.303H49.1433H49.9234V31.5185V30.7341H49.1433H48.3633Z" fill="#EFF6FE"/>
<path d="M49.9238 32.303V33.0874V33.8718H50.7039H51.4839V33.0874V32.303H50.7039H49.9238Z" fill="#EFF6FE"/>
<path d="M54.605 29.1653V28.3809V27.5964H53.825H53.0449V28.3809V29.1653H53.825H54.605Z" fill="#EFF6FE"/>
<path d="M57.7246 29.1653V29.9497V30.7341V31.5185V32.3029H58.5047H59.2847V31.5185V30.7341V29.9497V29.1653V28.3809V27.5964H58.5047H57.7246V28.3809V29.1653Z" fill="#EFF6FE"/>
<path d="M59.2842 33.8718H60.0642H60.8443V33.0874V32.303H60.0642H59.2842V33.0874V33.8718Z" fill="#EFF6FE"/>
<path d="M60.8457 35.4407H61.6258H62.4058V34.6562V33.8718H61.6258H60.8457V34.6562V35.4407Z" fill="#EFF6FE"/>
<path d="M62.4043 37.0095H63.1844H63.9644H64.7445H65.5245V36.2251V35.4407H64.7445H63.9644H63.1844H62.4043V36.2251V37.0095Z" fill="#EFF6FE"/>
<path d="M70.9853 37.0095H70.2052H69.4251H68.6451H67.865H67.085V37.7939V38.5784H67.865H68.6451H69.4251H70.2052H70.9853H71.7653V37.7939V37.0095H70.9853Z" fill="#EFF6FE"/>
<path d="M45.2432 13.477V14.2615V15.0459H46.0232H46.8033V15.8303V16.6147V17.3991V18.1835H47.5833H48.3634V18.968V19.7524H49.1435H49.9235V20.5368V21.3212V22.1056V22.89H49.1435H48.3634V23.6745V24.4589H49.1435H49.9235V25.2433V26.0277V26.8121V27.5966H50.7036H51.4836H52.2637H53.0437V26.8121V26.0277H52.2637H51.4836V25.2433V24.4589V23.6745V22.89H52.2637H53.0437H53.8238H54.6039V23.6745V24.4589H55.3839H56.164V23.6745V22.89V22.1056V21.3212H55.3839H54.6039V20.5368V19.7524H53.8238H53.0437H52.2637H51.4836V18.968V18.1835H50.7036H49.9235V17.3991V16.6147H49.1435H48.3634V15.8303V15.0459V14.2615V13.477H47.5833H46.8033V12.6926V11.9082H46.0232H45.2432V12.6926V13.477Z" fill="#EFF6FE"/>
<path d="M43.6836 8.77025V9.55467V10.3391V11.1235V11.9079H44.4637H45.2437V11.1235V10.3391V9.55467V8.77025V7.98583V7.20142H44.4637H43.6836V7.98583V8.77025Z" fill="#EFF6FE"/>
<path d="M9.36101 37.0095V36.2251V35.4407V34.6562V33.8718H8.58095H7.8009V34.6562V35.4407H7.02084H6.24078V36.2251V37.0095H5.46072H4.68066V37.7939V38.5783H5.46072H6.24078H7.02084H7.8009H8.58095H9.36101V37.7939V37.0095Z" fill="#EFF6FE"/>
<path d="M18.7233 37.0138H17.9433H17.1632V36.2294V35.445H16.3832H15.6031V34.6606V33.8762H14.8231H14.043V33.0917V32.3073V31.5229V30.7385H13.2629H12.4829V29.9541V29.1697V28.3852V27.6008V26.8164V26.032H11.7028H10.9228V26.8164V27.6008H10.1427H9.36265V28.3852V29.1697H8.58259H7.80253V29.9541V30.7385H7.02247H6.24242H5.46236H4.6823V31.5229V32.3073H3.90224H3.12218V33.0917V33.8762H2.34213H1.56207V34.6606V35.445V36.2294V37.0138H0.782011H0.00195312V37.7982V38.5827H0.782011H1.56207H2.34213H3.12218H3.90224H4.6823V37.7982V37.0138H5.46236H6.24242V36.2294V35.445H7.02247H7.80253V34.6606V33.8762H8.58259H9.36265V34.6606V35.445V36.2294V37.0138V37.7982V38.5827H10.1427H10.9228V37.7982V37.0138V36.2294V35.445H11.7028H12.4829V36.2294V37.0138H13.2629H14.043V37.7982V38.5827H14.8231H15.6031H16.3832H17.1632H17.9433H18.7233V37.7982V37.0138Z" fill="#9B9B9B"/>
<path d="M14.0431 37.0139H13.263H12.483V36.2295V35.4451H11.7029H10.9229V36.2295V37.0139V37.7983V38.5827H11.7029H12.483H13.263H14.0431V37.7983V37.0139Z" fill="#EFF6FE"/>
<path d="M23.4033 30.7385H24.1834H24.9634V29.9541V29.1697H24.1834H23.4033V29.9541V30.7385Z" fill="#EFF6FE"/>
<path d="M24.9639 32.3071H25.7439H26.524V31.5227V30.7383H25.7439H24.9639V31.5227V32.3071Z" fill="#EFF6FE"/>
<path d="M49.9248 32.3071H50.7049H51.4849V31.5227V30.7383H50.7049H49.9248V31.5227V32.3071Z" fill="#EFF6FE"/>
<path d="M51.4854 33.876H52.2654H53.0455V33.0915V32.3071H52.2654H51.4854V33.0915V33.876Z" fill="#EFF6FE"/>
<path d="M54.607 29.1697H53.8269H53.0469V29.9541V30.7385H53.8269H54.607V29.9541V29.1697Z" fill="#EFF6FE"/>
<path d="M56.1666 30.7383H55.3865H54.6064V31.5227V32.3071H55.3865H56.1666V31.5227V30.7383Z" fill="#EFF6FE"/>
<path d="M56.1671 37.0139V36.2295V35.4451H55.387H54.607V36.2295V37.0139H53.8269H53.0469V37.7983V38.5827H53.8269H54.607H55.387H56.1671V37.7983V37.0139Z" fill="#EFF6FE"/>
<path d="M57.7271 32.3071H56.947H56.167V33.0915V33.876H56.947H57.7271V33.0915V32.3071Z" fill="#EFF6FE"/>
<path d="M65.5271 37.0136H64.7471H63.967H63.187H62.4069V36.2292V35.4448H61.6269H60.8468V34.6604V33.876H60.0667H59.2867H58.5066H57.7266V34.6604V35.4448H58.5066H59.2867V36.2292V37.0136H60.0667H60.8468V37.7981V38.5825H61.6269H62.4069H63.187H63.967H64.7471H65.5271V37.7981V37.0136Z" fill="#EFF6FE"/>
<path d="M39.0045 10.3435V9.55906V8.77465V7.99023V7.20581H38.2244H37.4443V7.99023V8.77465V9.55906V10.3435H38.2244H39.0045Z" fill="#9B9B9B"/>
<path d="M42.1255 5.63695V4.85253V4.06812H41.3455H40.5654V4.85253V5.63695H41.3455H42.1255Z" fill="#EFF6FE"/>
<path d="M48.3655 37.0139H47.5854H46.8054V36.2295V35.4451H46.0253H45.2453V34.6607V33.8762V33.0918V32.3074H44.4652H43.6851V31.523V30.7386V29.9542V29.1697V28.3853V27.6009V26.8165V26.0321V25.2476V24.4632H42.9051H42.125V23.6788V22.8944H41.345H40.5649V22.11V21.3256V20.5411V19.7567H41.345H42.125V20.5411V21.3256V22.11V22.8944H42.9051H43.6851V23.6788V24.4632H44.4652H45.2453V25.2476V26.0321H46.0253H46.8054V26.8165V27.6009V28.3853V29.1697H47.5854H48.3655V29.9542V30.7386H49.1455H49.9256V29.9542V29.1697V28.3853V27.6009H49.1455H48.3655V26.8165V26.0321V25.2476V24.4632H47.5854H46.8054V23.6788V22.8944V22.11V21.3256H46.0253H45.2453V20.5411V19.7567H44.4652H43.6851V18.9723V18.1879V17.4035V16.6191H42.9051H42.125V15.8346V15.0502V14.2658V13.4814H41.345H40.5649V12.697V11.9125V11.1281V10.3437V9.55929V8.77488V7.99046V7.20604V6.42162V5.63721H39.7849H39.0048V6.42162V7.20604V7.99046V8.77488V9.55929V10.3437H38.2247H37.4447V11.1281V11.9125V12.697V13.4814H36.6646H35.8846V14.2658V15.0502V15.8346V16.6191H35.1045H34.3244V17.4035V18.1879V18.9723V19.7567V20.5411V21.3256H33.5444H32.7643V22.11V22.8944V23.6788V24.4632H31.9843H31.2042V25.2476V26.0321H30.4242H29.6441V26.8165V27.6009H28.864H28.084V28.3853V29.1697V29.9542V30.7386H28.864H29.6441V29.9542V29.1697H30.4242H31.2042H31.9843H32.7643V28.3853V27.6009H33.5444H34.3244V26.8165V26.0321H35.1045H35.8846V26.8165V27.6009V28.3853V29.1697H35.1045H34.3244V29.9542V30.7386V31.523V32.3074H35.1045H35.8846V31.523V30.7386H36.6646H37.4447V29.9542V29.1697H38.2247H39.0048V28.3853V27.6009H39.7849H40.5649V28.3853V29.1697V29.9542V30.7386H39.7849H39.0048V31.523V32.3074V33.0918V33.8762H38.2247H37.4447V34.6607V35.4451V36.2295V37.0139H38.2247H39.0048V37.7983V38.5827H39.7849H40.5649H41.345H42.125H42.9051H43.6851H44.4652H45.2453H46.0253H46.8054H47.5854H48.3655V37.7983V37.0139Z" fill="#EFF6FE"/>
<path d="M26.5234 33.876H27.3035H28.0836V33.0915V32.3071H27.3035H26.5234V33.0915V33.876Z" fill="#EFF6FE"/>
<path d="M28.084 35.4448H28.864H29.6441V34.6604V33.876H28.864H28.084V34.6604V35.4448Z" fill="#EFF6FE"/>
<path d="M29.6445 37.0137H30.4246H31.2046V36.2292V35.4448H30.4246H29.6445V36.2292V37.0137Z" fill="#EFF6FE"/>
<path d="M21.8438 27.6008V28.3852V29.1697H22.6238H23.4039V28.3852V27.6008V26.8164V26.032H22.6238H21.8438V26.8164V27.6008Z" fill="#EFF6FE"/>
<path d="M39.0056 37.0137H38.2255H37.4455V36.2293V35.4449V34.6604V33.876H38.2255H39.0056V33.0916V32.3072V31.5228V30.7384H39.7856H40.5657V29.9539V29.1695V28.3851V27.6007H39.7856H39.0056V28.3851V29.1695H38.2255H37.4455V29.9539V30.7384H36.6654H35.8853V31.5228V32.3072H35.1053H34.3252V31.5228V30.7384V29.9539V29.1695H35.1053H35.8853V28.3851V27.6007V26.8163V26.0319H35.1053H34.3252V26.8163V27.6007H33.5452H32.7651V28.3851V29.1695H31.985H31.205H30.4249H29.6449V29.9539V30.7384H28.8648H28.0848V29.9539V29.1695V28.3851V27.6007H28.8648H29.6449V26.8163V26.0319H30.4249H31.205V25.2474V24.463H31.985H32.7651V23.6786V22.8942V22.1098V21.3254H33.5452H34.3252V20.5409V19.7565V18.9721V18.1877V17.4033V16.6188H35.1053H35.8853V15.8344V15.05V14.2656V13.4812H36.6654H37.4455V12.6968V11.9123V11.1279V10.3435H36.6654H35.8853V11.1279V11.9123H35.1053H34.3252V12.6968V13.4812V14.2656V15.05H33.5452H32.7651V15.8344V16.6188H31.985H31.205V17.4033V18.1877H30.4249H29.6449V18.9721V19.7565H28.8648H28.0848V20.5409V21.3254H27.3047H26.5246V20.5409V19.7565V18.9721V18.1877H25.7446H24.9645V18.9721V19.7565V20.5409V21.3254H24.1845H23.4044V22.1098V22.8942H22.6244H21.8443V23.6786V24.463H21.0642H20.2842V25.2474V26.0319H21.0642H21.8443H22.6244H23.4044V26.8163V27.6007V28.3851V29.1695H24.1845H24.9645V29.9539V30.7384H25.7446H26.5246V31.5228V32.3072H27.3047H28.0848V33.0916V33.876H28.8648H29.6449V34.6604V35.4449H30.4249H31.205V36.2293V37.0137H30.4249H29.6449V36.2293V35.4449H28.8648H28.0848V34.6604V33.876H27.3047H26.5246H25.7446H24.9645V33.0916V32.3072H24.1845H23.4044V33.0916V33.876V34.6604V35.4449H24.1845H24.9645V36.2293V37.0137H25.7446H26.5246V37.7981V38.5825H27.3047H28.0848H28.8648H29.6449H30.4249H31.205H31.985H32.7651H33.5452H34.3252H35.1053H35.8853H36.6654H37.4455H38.2255H39.0056V37.7981V37.0137Z" fill="#9B9B9B"/>
<path d="M60.8473 37.0136H60.0673H59.2872V36.2292V35.4448H58.5072H57.7271V34.6604V33.876H56.9471H56.167V34.6604V35.4448V36.2292V37.0136V37.7981V38.5825H56.9471H57.7271H58.5072H59.2872H60.0673H60.8473V37.7981V37.0136Z" fill="#9B9B9B"/>
<path d="M26.524 37.0135H25.744H24.9639V36.2291V35.4447H24.1838H23.4038V34.6603V33.8759V33.0915V32.307V31.5226V30.7382H22.6237H21.8437H21.0636H20.2835V31.5226V32.307V33.0915V33.8759H21.0636H21.8437V34.6603V35.4447H21.0636H20.2835V34.6603V33.8759H19.5035H18.7234V33.0915V32.307V31.5226V30.7382H17.9434H17.1633V29.9538V29.1694H16.3833H15.6032V28.385V27.6005V26.8161V26.0317V25.2473V24.4629H14.8231H14.0431V23.6784V22.894V22.1096V21.3252H13.263H12.483V22.1096V22.894H11.7029H10.9229V23.6784V24.4629V25.2473V26.0317H11.7029H12.483V26.8161V27.6005V28.385V29.1694V29.9538V30.7382H13.263H14.0431V31.5226V32.307V33.0915V33.8759H14.8231H15.6032V34.6603V35.4447H16.3833H17.1633V36.2291V37.0135H17.9434H18.7234V37.798V38.5824H19.5035H20.2835H21.0636H21.8437H22.6237H23.4038H24.1838H24.9639H25.744H26.524V37.798V37.0135Z" fill="#EFF6FE"/>
<path d="M17.1636 27.6008V26.8164V26.032H16.3836H15.6035V26.8164V27.6008V28.3852V29.1697H16.3836H17.1636V28.3852V27.6008Z" fill="#EFF6FE"/>
<path d="M21.8448 29.1694V28.385V27.6006H21.0648H20.2847H19.5047H18.7246V28.385V29.1694V29.9538V30.7383V31.5227V32.3071V33.0915V33.8759H19.5047H20.2847V33.0915V32.3071V31.5227V30.7383H21.0648H21.8448H22.6249H23.405V29.9538V29.1694H22.6249H21.8448Z" fill="#EFF6FE"/>
<path d="M46.8052 27.6008V26.8164V26.032H46.0252H45.2451V26.8164V27.6008H46.0252H46.8052Z" fill="#EFF6FE"/>
<path d="M54.6056 24.4631V23.6787V22.8943H53.8255H53.0455H52.2654H51.4854V23.6787V24.4631V25.2475V26.032H52.2654H53.0455V26.8164V27.6008H53.8255H54.6056V28.3852V29.1696V29.954V30.7385H55.3856H56.1657V31.5229V32.3073H56.9458H57.7258V31.5229V30.7385V29.954V29.1696V28.3852V27.6008V26.8164V26.032H56.9458H56.1657V25.2475V24.4631H55.3856H54.6056Z" fill="#EFF6FE"/>
<path d="M57.7266 32.3071V33.0915V33.876H58.5066H59.2867V33.0915V32.3071H58.5066H57.7266Z" fill="#EFF6FE"/>
<path d="M49.9253 26.032V25.2476V24.4631H49.1453H48.3652V25.2476V26.032V26.8164V27.6008H49.1453H49.9253V26.8164V26.032Z" fill="#EFF6FE"/>
<path d="M42.1255 21.3252V20.5408V19.7563H41.3455H40.5654V20.5408V21.3252V22.1096V22.894H41.3455H42.1255V22.1096V21.3252Z" fill="#EFF6FE"/>
<path d="M40.5654 7.20604V7.99046V8.77488V9.55929V10.3437V11.1281V11.9125V12.697V13.4814H41.3455H42.1255V14.2658V15.0502V15.8346V16.6191H42.9056H43.6857V17.4035V18.1879V18.9723V19.7567H44.4657H45.2458V20.5411V21.3256H46.0258H46.8059V22.11V22.8944V23.6788V24.4632H47.586H48.366V23.6788V22.8944H49.1461H49.9261V22.11V21.3256V20.5411V19.7567H49.1461H48.366V18.9723V18.1879H47.586H46.8059V17.4035V16.6191V15.8346V15.0502H46.0258H45.2458V14.2658V13.4814V12.697V11.9125H44.4657H43.6857V11.1281V10.3437V9.55929V8.77488V7.99046V7.20604V6.42162V5.63721H42.9056H42.1255H41.3455H40.5654V6.42162V7.20604Z" fill="#EFF6FE"/>
<path d="M53.0462 37.0136H53.8263H54.6064V36.2292V35.4448H55.3864H56.1665V34.6603V33.8759V33.0915V32.3071H55.3864H54.6064V31.5227V30.7383H53.8263H53.0462V29.9538V29.1694V28.385V27.6006H52.2662H51.4861H50.7061H49.926V28.385V29.1694V29.9538V30.7383H50.7061H51.4861V31.5227V32.3071H52.2662H53.0462V33.0915V33.8759H52.2662H51.4861H50.7061H49.926V33.0915V32.3071H49.146H48.3659V31.5227V30.7383H47.5858H46.8058V29.9538V29.1694H46.0257H45.2457V28.385V27.6006H44.4656H43.6855V28.385V29.1694V29.9538V30.7383V31.5227V32.3071H44.4656H45.2457V33.0915V33.8759V34.6603V35.4448H46.0257H46.8058V36.2292V37.0136H47.5858H48.3659V37.798V38.5824H49.146H49.926H50.7061H51.4861H52.2662H53.0462V37.798V37.0136Z" fill="#EFF6FE"/>
<path d="M67.0875 37.0137H66.3074H65.5273V37.7981V38.5825H66.3074H67.0875V37.7981V37.0137Z" fill="#EFF6FE"/>
<path d="M23.4033 30.7383V31.5227V32.3071H24.1834H24.9634V31.5227V30.7383H24.1834H23.4033Z" fill="#EFF6FE"/>
<path d="M24.9639 32.3071V33.0915V33.876H25.7439H26.524V33.0915V32.3071H25.7439H24.9639Z" fill="#EFF6FE"/>
<path d="M20.2842 35.4448H21.0642H21.8443V34.6604V33.876H21.0642H20.2842V34.6604V35.4448Z" fill="#EFF6FE"/>
<path d="M15.6021 22.8943H14.822H14.042V23.6787V24.4631H14.822H15.6021V23.6787V22.8943Z" fill="#EFF6FE"/>
<path d="M28.084 16.6189V17.4033V18.1877V18.9721V19.7565H28.864H29.6441V18.9721V18.1877H30.4242H31.2042V17.4033V16.6189V15.8344V15.05V14.2656V13.4812V12.6968V11.9124H30.4242H29.6441V12.6968V13.4812V14.2656V15.05H28.864H28.084V15.8344V16.6189Z" fill="#EFF6FE"/>
<path d="M10.9224 27.6008V26.8164V26.032H10.1424H9.3623V26.8164V27.6008H10.1424H10.9224Z" fill="#EFF6FE"/>
<path d="M26.5234 19.7566V20.541V21.3254H27.3035H28.0836V20.541V19.7566V18.9721V18.1877V17.4033V16.6189V15.8345V15.05H27.3035H26.5234V15.8345V16.6189V17.4033V18.1877V18.9721V19.7566Z" fill="#EFF6FE"/>
<path d="M29.6441 15.05V14.2656V13.4812V12.6968V11.9124H28.864H28.084V12.6968V13.4812V14.2656V15.05H28.864H29.6441Z" fill="#EFF6FE"/>
<path d="M31.2046 11.9123V11.1279V10.3435H30.4246H29.6445V11.1279V11.9123H30.4246H31.2046Z" fill="#EFF6FE"/>
<path d="M14.042 22.894H14.8221H15.6021V23.6784V24.4629V25.2473V26.0317H16.3822H17.1622V26.8161V27.6005V28.3849V29.1694V29.9538V30.7382H17.9423H18.7223V29.9538V29.1694V28.3849V27.6005H19.5024H20.2825H21.0625H21.8426V26.8161V26.0317H21.0625H20.2825V25.2473V24.4629H19.5024H18.7223V23.6784V22.894H17.9423H17.1622V22.1096V21.3252H16.3822H15.6021V20.5408V19.7563H14.8221H14.042V20.5408V21.3252V22.1096V22.894Z" fill="#EFF6FE"/>
<path d="M31.2051 13.4812V14.2656V15.05V15.8344V16.6189H31.9851H32.7652V15.8344V15.05H33.5453H34.3253V14.2656V13.4812H33.5453H32.7652V12.6968V11.9124H31.9851H31.2051V12.6968V13.4812Z" fill="#EFF6FE"/>
<path d="M43.6851 22.8943H42.9051H42.125V23.6787V24.4631H42.9051H43.6851V23.6787V22.8943Z" fill="#EFF6FE"/>
<path d="M45.2457 26.032V25.2476V24.4631H44.4656H43.6855V25.2476V26.032V26.8164V27.6008H44.4656H45.2457V26.8164V26.032Z" fill="#EFF6FE"/>
<path d="M46.8052 27.6006H46.0252H45.2451V28.385V29.1694H46.0252H46.8052V28.385V27.6006Z" fill="#EFF6FE"/>
<path d="M48.3648 29.1697H47.5847H46.8047V29.9541V30.7385H47.5847H48.3648V29.9541V29.1697Z" fill="#EFF6FE"/>
<path d="M48.3652 30.7383V31.5227V32.3071H49.1453H49.9253V31.5227V30.7383H49.1453H48.3652Z" fill="#EFF6FE"/>
<path d="M49.9248 32.3071V33.0915V33.876H50.7049H51.4849V33.0915V32.3071H50.7049H49.9248Z" fill="#EFF6FE"/>
<path d="M54.607 29.1694V28.385V27.6006H53.8269H53.0469V28.385V29.1694H53.8269H54.607Z" fill="#EFF6FE"/>
<path d="M57.7266 29.1694V29.9538V30.7383V31.5227V32.3071H58.5066H59.2867V31.5227V30.7383V29.9538V29.1694V28.385V27.6006H58.5066H57.7266V28.385V29.1694Z" fill="#EFF6FE"/>
<path d="M59.2861 33.876H60.0662H60.8462V33.0915V32.3071H60.0662H59.2861V33.0915V33.876Z" fill="#EFF6FE"/>
<path d="M60.8467 35.4448H61.6267H62.4068V34.6604V33.876H61.6267H60.8467V34.6604V35.4448Z" fill="#EFF6FE"/>
<path d="M62.4072 37.0137H63.1873H63.9673H64.7474H65.5275V36.2292V35.4448H64.7474H63.9673H63.1873H62.4072V36.2292V37.0137Z" fill="#EFF6FE"/>
<path d="M70.9872 37.0137H70.2071H69.4271H68.647H67.867H67.0869V37.7981V38.5825H67.867H68.647H69.4271H70.2071H70.9872H71.7673V37.7981V37.0137H70.9872Z" fill="#EFF6FE"/>
<path d="M45.2451 13.4812V14.2656V15.05H46.0252H46.8052V15.8344V16.6189V17.4033V18.1877H47.5853H48.3653V18.9721V19.7565H49.1454H49.9255V20.5409V21.3254V22.1098V22.8942H49.1454H48.3653V23.6786V24.463H49.1454H49.9255V25.2474V26.0319V26.8163V27.6007H50.7055H51.4856H52.2656H53.0457V26.8163V26.0319H52.2656H51.4856V25.2474V24.463V23.6786V22.8942H52.2656H53.0457H53.8258H54.6058V23.6786V24.463H55.3859H56.1659V23.6786V22.8942V22.1098V21.3254H55.3859H54.6058V20.5409V19.7565H53.8258H53.0457H52.2656H51.4856V18.9721V18.1877H50.7055H49.9255V17.4033V16.6189H49.1454H48.3653V15.8344V15.05V14.2656V13.4812H47.5853H46.8052V12.6968V11.9124H46.0252H45.2451V12.6968V13.4812Z" fill="#EFF6FE"/>
<path d="M43.6855 8.77465V9.55906V10.3435V11.1279V11.9123H44.4656H45.2457V11.1279V10.3435V9.55906V8.77465V7.99023V7.20581H44.4656H43.6855V7.99023V8.77465Z" fill="#EFF6FE"/>
<path d="M9.36296 37.0136V36.2292V35.4448V34.6604V33.876H8.58291H7.80285V34.6604V35.4448H7.02279H6.24273V36.2292V37.0136H5.46268H4.68262V37.7981V38.5825H5.46268H6.24273H7.02279H7.80285H8.58291H9.36296V37.7981V37.0136Z" fill="#EFF6FE"/>
</g>
<defs>
<clipPath id="clip0_308_299">
<rect width="201" height="39" fill="white"/>
</clipPath>
</defs>
</svg>
