<svg width="33" height="25" viewBox="0 0 33 25" fill="none" xmlns="http://www.w3.org/2000/svg">
<path d="M26.4706 13.4616V11.6759H32.1429V13.4616H26.4706ZM28.3751 25L23.837 21.5384L24.9312 20.1237L29.4689 23.5853L28.3751 25ZM24.796 4.87634L23.7022 3.46161L28.2399 0L29.3337 1.41473L24.796 4.87634ZM4.65924 23.2143V16.4147H2.83593C2.05054 16.4147 1.38146 16.1338 0.8287 15.5719C0.276233 15.0097 0 14.3292 0 13.5304V11.6071C0 10.8083 0.276233 10.1278 0.8287 9.56562C1.38146 9.00372 2.05054 8.72277 2.83593 8.72277H9.38608L16.3414 4.53303V20.6045L9.38608 16.4147H6.41496V23.2143H4.65924ZM14.5856 17.4246V7.71294L9.879 10.5085H2.83593C2.56584 10.5085 2.31828 10.6229 2.09326 10.8518C1.86823 11.0807 1.75572 11.3324 1.75572 11.6071V13.5304C1.75572 13.8051 1.86823 14.0568 2.09326 14.2857C2.31828 14.5146 2.56584 14.629 2.83593 14.629H9.879L14.5856 17.4246ZM19.4477 17.7268V7.41071C20.0353 7.96488 20.5086 8.69241 20.8676 9.5933C21.2267 10.4942 21.4062 11.486 21.4062 12.5687C21.4062 13.6515 21.2267 14.6433 20.8676 15.5442C20.5086 16.4451 20.0353 17.1726 19.4477 17.7268Z" fill="#C8DDF8"/>
</svg>
