<svg width="15" height="25" viewBox="0 0 15 25" fill="none" xmlns="http://www.w3.org/2000/svg">
<path d="M0.192143 25L0 23.4548L3.68679 12.9376C3.87917 13.1117 4.07833 13.2495 4.28429 13.3509C4.49048 13.4524 4.70345 13.5362 4.92321 13.6024L1.32429 23.9035L0.192143 25ZM14.0936 25L12.9614 23.9035L9.3625 13.6024C9.58226 13.5362 9.79524 13.4524 10.0014 13.3509C10.2074 13.2495 10.4065 13.1117 10.5989 12.9376L14.2857 23.4548L14.0936 25ZM7.14286 11.0796C6.15381 11.0796 5.31131 10.7198 4.61536 10.0001C3.91941 9.28039 3.57143 8.40917 3.57143 7.3864C3.57143 6.42617 3.86214 5.62265 4.44357 4.97585C5.02524 4.32904 5.6869 3.94311 6.42857 3.81803V0H7.85714V3.81803C8.59881 3.94311 9.26048 4.32904 9.84214 4.97585C10.4236 5.62265 10.7143 6.42617 10.7143 7.3864C10.7143 8.40917 10.3663 9.28039 9.67036 10.0001C8.97441 10.7198 8.1319 11.0796 7.14286 11.0796ZM7.14286 9.60232C7.73071 9.60232 8.23488 9.38503 8.65536 8.95047C9.07559 8.51565 9.28571 7.9943 9.28571 7.3864C9.28571 6.7785 9.07559 6.25714 8.65536 5.82233C8.23488 5.38776 7.73071 5.17048 7.14286 5.17048C6.555 5.17048 6.05083 5.38776 5.63036 5.82233C5.21012 6.25714 5 6.7785 5 7.3864C5 7.9943 5.21012 8.51565 5.63036 8.95047C6.05083 9.38503 6.555 9.60232 7.14286 9.60232Z" fill="#C8DDF8"/>
</svg>
