<svg width="27" height="25" viewBox="0 0 27 25" fill="none" xmlns="http://www.w3.org/2000/svg">
<path d="M9.59125 24.9755C8.63292 24.9755 7.79365 24.6803 7.07344 24.0899C6.35302 23.4997 5.85656 22.743 5.58406 21.82C5.33094 22.2489 4.98125 22.577 4.535 22.8045C4.08854 23.032 3.61854 23.1457 3.125 23.1457C2.25479 23.1457 1.51646 22.8365 0.91 22.2181C0.303333 21.5999 0 20.8491 0 19.9657C0 19.1845 0.267604 18.4731 0.802813 17.8316C1.33802 17.1899 2.01354 16.8649 2.82938 16.8566C2.40937 16.4653 2.07719 15.9944 1.83281 15.4441C1.58844 14.8937 1.46625 14.3209 1.46625 13.7256C1.46625 13.0198 1.63573 12.3583 1.97469 11.7409C2.31365 11.1234 2.78844 10.614 3.39906 10.2129C3.45594 10.4006 3.5326 10.6011 3.62906 10.8146C3.72573 11.0283 3.82458 11.2208 3.92562 11.3921C3.53771 11.6904 3.24438 12.046 3.04563 12.459C2.84688 12.8717 2.7475 13.3045 2.7475 13.7574C2.7475 15.075 3.22667 15.9246 4.185 16.3062C5.14333 16.6878 6.12979 16.9797 7.14437 17.1819L7.42562 17.686C7.19646 18.3644 7.01052 18.9379 6.86781 19.4067C6.7251 19.8756 6.65375 20.3091 6.65375 20.707C6.65375 21.4994 6.93594 22.1929 7.50031 22.7873C8.06469 23.3818 8.75365 23.679 9.56719 23.679C10.4551 23.679 11.1835 23.339 11.7525 22.6589C12.3212 21.979 12.7883 21.1718 13.1538 20.2373C13.5192 19.3028 13.8025 18.3415 14.0037 17.3533C14.2048 16.365 14.3734 15.5569 14.5097 14.9292L15.7453 15.279C15.5739 16.1188 15.3686 17.0964 15.1297 18.2119C14.8909 19.3273 14.5508 20.3844 14.1094 21.3834C13.6679 22.3821 13.0886 23.2305 12.3716 23.9287C11.6543 24.6266 10.7275 24.9755 9.59125 24.9755ZM3.125 21.8737C3.63937 21.8737 4.08052 21.6866 4.44844 21.3125C4.81615 20.9381 5 20.4892 5 19.9657C5 19.4423 4.81615 18.9934 4.44844 18.619C4.08052 18.2448 3.63937 18.0577 3.125 18.0577C2.61063 18.0577 2.16948 18.2448 1.80156 18.619C1.43385 18.9934 1.25 19.4423 1.25 19.9657C1.25 20.4892 1.43385 20.9381 1.80156 21.3125C2.16948 21.6866 2.61063 21.8737 3.125 21.8737ZM10.7259 16.6292C9.8799 15.8578 9.10625 15.1366 8.405 14.4656C7.70396 13.7946 7.09823 13.1365 6.58781 12.4914C6.0774 11.8465 5.68521 11.2016 5.41125 10.5567C5.13708 9.91157 5 9.24006 5 8.54215C5 7.34308 5.40333 6.3331 6.21 5.51224C7.01667 4.69137 8.00917 4.28094 9.1875 4.28094C9.415 4.28094 9.6201 4.2944 9.80281 4.32132C9.98552 4.34825 10.1586 4.38619 10.3222 4.43517C10.2228 4.23949 10.1443 4.03819 10.0866 3.83128C10.0289 3.62458 10 3.40749 10 3.18001C10 2.29682 10.3035 1.54602 10.9106 0.92761C11.5177 0.309203 12.2549 0 13.1222 0C13.9895 0 14.7276 0.309203 15.3366 0.92761C15.9455 1.54602 16.25 2.29682 16.25 3.18001C16.25 3.41322 16.2211 3.63052 16.1634 3.83192C16.1057 4.03332 16.0272 4.23196 15.9278 4.42785C16.0914 4.37888 16.2645 4.3421 16.4472 4.31751C16.6299 4.29313 16.835 4.28094 17.0625 4.28094C18.0079 4.28094 18.8341 4.55452 19.5409 5.1017C20.2476 5.64887 20.7324 6.3472 20.9953 7.19669C20.7989 7.16574 20.5778 7.15026 20.3322 7.15026C20.0868 7.15026 19.8623 7.1633 19.6588 7.18938C19.4327 6.70178 19.0909 6.30713 18.6334 6.00546C18.1759 5.70378 17.6558 5.55294 17.0731 5.55294C16.2888 5.55294 15.6654 5.75805 15.2031 6.16827C14.7408 6.57828 14.1395 7.22118 13.3991 8.09695H12.8197C12.0584 7.1951 11.4467 6.54563 10.9844 6.14856C10.5221 5.75148 9.92313 5.55294 9.1875 5.55294C8.34062 5.55294 7.63937 5.83575 7.08375 6.40137C6.52792 6.96678 6.25 7.68037 6.25 8.54215C6.25 9.03506 6.37344 9.54397 6.62031 10.0689C6.86698 10.5938 7.22188 11.1478 7.685 11.7308C8.14833 12.3138 8.7101 12.9339 9.37031 13.5911C10.0305 14.2483 10.7797 14.9585 11.6178 15.7217L10.7259 16.6292ZM13.125 5.08802C13.6394 5.08802 14.0805 4.90093 14.4484 4.52675C14.8161 4.15257 15 3.70366 15 3.18001C15 2.65658 14.8161 2.20778 14.4484 1.8336C14.0805 1.4592 13.6394 1.27201 13.125 1.27201C12.6106 1.27201 12.1695 1.4592 11.8016 1.8336C11.4339 2.20778 11.25 2.65658 11.25 3.18001C11.25 3.70366 11.4339 4.15257 11.8016 4.52675C12.1695 4.90093 12.6106 5.08802 13.125 5.08802ZM16.5794 25C16.2827 25 15.9895 24.9677 15.6997 24.903C15.4099 24.8386 15.1302 24.7364 14.8606 24.5965C14.9765 24.444 15.0923 24.2644 15.2081 24.0574C15.324 23.8505 15.4293 23.6599 15.5241 23.4857C15.7091 23.5639 15.8942 23.6198 16.0794 23.6533C16.2644 23.6868 16.4495 23.7035 16.6347 23.7035C17.4455 23.7035 18.139 23.407 18.715 22.8141C19.2913 22.2213 19.5794 21.5165 19.5794 20.6997C19.5794 20.3017 19.508 19.8724 19.3653 19.4118C19.2228 18.9511 19.037 18.3815 18.8078 17.7031L19.1131 17.1991C20.1483 16.9969 21.1399 16.7009 22.0878 16.3112C23.0357 15.9214 23.5097 15.0676 23.5097 13.7501C23.5097 12.7227 23.1543 11.9611 22.4434 11.4652C21.7328 10.9696 20.9327 10.7217 20.0431 10.7217C19.2031 10.7217 18.2231 10.8669 17.1031 11.1571C15.9831 11.4473 14.6899 11.8411 13.2234 12.3385L12.8797 11.0814C14.3124 10.6165 15.6021 10.2201 16.7488 9.89239C17.8952 9.56464 18.9477 9.40076 19.9062 9.40076C21.1675 9.40076 22.2917 9.77833 23.2787 10.5335C24.266 11.2884 24.7597 12.3606 24.7597 13.7501C24.7597 14.3384 24.6415 14.8972 24.405 15.4266C24.1688 15.9559 23.8406 16.4326 23.4206 16.8566C24.2365 16.8812 24.912 17.2062 25.4472 17.8316C25.9824 18.457 26.25 19.1684 26.25 19.9657C26.25 20.83 25.9467 21.5762 25.34 22.2041C24.7335 22.8319 23.9952 23.1457 23.125 23.1457C22.6315 23.1457 22.1615 23.032 21.715 22.8045C21.2687 22.577 20.9191 22.2489 20.6659 21.82C20.3934 22.743 19.889 23.5038 19.1525 24.1023C18.4163 24.7008 17.5585 25 16.5794 25ZM23.1562 21.8737C23.6706 21.8737 24.1066 21.6866 24.4641 21.3125C24.8214 20.9381 25 20.4892 25 19.9657C25 19.4423 24.8161 18.9881 24.4484 18.6031C24.0805 18.2183 23.6394 18.0259 23.125 18.0259C22.6106 18.0259 22.1695 18.213 21.8016 18.5872C21.4339 18.9616 21.25 19.4105 21.25 19.9339C21.25 20.4573 21.4391 20.9116 21.8172 21.2966C22.1955 21.6813 22.6419 21.8737 23.1562 21.8737Z" fill="#C8DDF8"/>
</svg>
