<svg width="38" height="25" viewBox="0 0 38 25" fill="none" xmlns="http://www.w3.org/2000/svg">
<path d="M20.0092 11.2425C20.6786 10.5015 21.1491 9.64291 21.4208 8.66667C21.6924 7.69043 21.8282 6.69104 21.8282 5.66851C21.8282 4.64629 21.6924 3.64705 21.4208 2.67081C21.1491 1.69457 20.6786 0.83579 20.0092 0.0944751C21.3853 0.225481 22.5222 0.823823 23.4199 1.8895C24.3179 2.9555 24.7669 4.21516 24.7669 5.66851C24.7669 7.12216 24.3179 8.38183 23.4199 9.44751C22.5222 10.5135 21.3853 11.1118 20.0092 11.2425ZM29.1043 25V21.802C29.1043 20.8755 28.9435 19.9941 28.6218 19.1577C28.2999 18.3212 27.7914 17.6306 27.0966 17.0858C28.3396 17.4829 29.4746 18.0515 30.5018 18.7916C31.5292 19.5316 32.0429 20.5351 32.0429 21.802V25H29.1043ZM32.0429 13.4448V9.66575H28.4049V7.77625H32.0429V3.99724H33.862V7.77625H37.5V9.66575H33.862V13.4448H32.0429ZM12.7331 11.337C11.2324 11.337 9.94776 10.782 8.87909 9.67189C7.81042 8.56181 7.27608 7.22734 7.27608 5.66851C7.27608 4.10967 7.81042 2.77521 8.87909 1.66512C9.94776 0.555041 11.2324 0 12.7331 0C14.2338 0 15.5185 0.555041 16.5872 1.66512C17.6559 2.77521 18.1902 4.10967 18.1902 5.66851C18.1902 7.22734 17.6559 8.56181 16.5872 9.67189C15.5185 10.782 14.2338 11.337 12.7331 11.337ZM0 25V21.8894C0 21.1094 0.218585 20.3795 0.655756 19.6999C1.09323 19.0207 1.68153 18.4932 2.42066 18.1175C4.13721 17.2625 5.85482 16.6212 7.57349 16.1935C9.29216 15.7662 11.012 15.5525 12.7331 15.5525C14.4542 15.5525 16.1741 15.7662 17.8928 16.1935C19.6118 16.6212 21.3294 17.2625 23.0456 18.1175C23.785 18.4932 24.3733 19.0207 24.8105 19.6999C25.2477 20.3795 25.4663 21.1094 25.4663 21.8894V25H0ZM12.7331 9.44751C13.7336 9.44751 14.5901 9.07748 15.3025 8.33743C16.015 7.59737 16.3712 6.70773 16.3712 5.66851C16.3712 4.62928 16.015 3.73964 15.3025 2.99958C14.5901 2.25953 13.7336 1.8895 12.7331 1.8895C11.7327 1.8895 10.8762 2.25953 10.1638 2.99958C9.45132 3.73964 9.0951 4.62928 9.0951 5.66851C9.0951 6.70773 9.45132 7.59737 10.1638 8.33743C10.8762 9.07748 11.7327 9.44751 12.7331 9.44751ZM1.81902 23.1105H23.6473V21.8894C23.6473 21.4703 23.5173 21.0766 23.2575 20.7085C22.9974 20.3403 22.6375 20.029 22.1779 19.7746C20.6809 19.0213 19.1373 18.4442 17.5472 18.0433C15.957 17.6424 14.3524 17.442 12.7331 17.442C11.1142 17.442 9.50968 17.6424 7.91956 18.0433C6.32913 18.4442 4.78539 19.0213 3.28833 19.7746C2.82903 20.029 2.46932 20.3403 2.2092 20.7085C1.94908 21.0766 1.81902 21.4703 1.81902 21.8894V23.1105Z" fill="#C8DDF8"/>
</svg>
